<?xml version="1.0" encoding="UTF-8" standalone="no"?>
<svg
   xmlns:dc="http://purl.org/dc/elements/1.1/"
   xmlns:cc="http://creativecommons.org/ns#"
   xmlns:rdf="http://www.w3.org/1999/02/22-rdf-syntax-ns#"
   xmlns:svg="http://www.w3.org/2000/svg"
   xmlns="http://www.w3.org/2000/svg"
   xmlns:sodipodi="http://sodipodi.sourceforge.net/DTD/sodipodi-0.dtd"
   xmlns:inkscape="http://www.inkscape.org/namespaces/inkscape"
   width="210mm"
   height="297mm"
   viewBox="0 0 210 297"
   version="1.1"
   id="svg8"
   inkscape:version="1.0.1 (0767f8302a, 2020-10-17)"
   sodipodi:docname="cbt.svg">
  <defs
     id="defs2" />
  <sodipodi:namedview
     id="base"
     pagecolor="#ffffff"
     bordercolor="#666666"
     borderopacity="1.0"
     inkscape:pageopacity="0.0"
     inkscape:pageshadow="2"
     inkscape:zoom="0.35"
     inkscape:cx="400"
     inkscape:cy="560"
     inkscape:document-units="mm"
     inkscape:current-layer="layer1"
     inkscape:document-rotation="0"
     showgrid="false"
     inkscape:window-width="1366"
     inkscape:window-height="694"
     inkscape:window-x="0"
     inkscape:window-y="0"
     inkscape:window-maximized="1" />
  <metadata
     id="metadata5">
    <rdf:RDF>
      <cc:Work
         rdf:about="">
        <dc:format>image/svg+xml</dc:format>
        <dc:type
           rdf:resource="http://purl.org/dc/dcmitype/StillImage" />
        <dc:title></dc:title>
      </cc:Work>
    </rdf:RDF>
  </metadata>
  <g
     inkscape:label="Layer 1"
     inkscape:groupmode="layer"
     id="layer1">
    <path
       style="fill:#000000;stroke-width:0.603115"
       d="m 25.004914,204.72633 v -4.52553 l 3.002743,-0.0827 3.002742,-0.0827 1.71585,-0.16714 1.71585,-0.16712 7.774784,-0.0682 7.77478,-0.0682 0.360551,-9.69864 0.360551,-9.69864 0.372438,-2.06692 0.372438,-2.06692 h 0.848437 0.848436 l -0.324044,1.43563 -0.324045,1.43561 -0.332535,7.94504 -0.332536,7.94501 -0.27011,2.38491 -0.270109,2.38492 h 7.728095 7.728096 v -1.20391 -1.20392 l 0.904707,-0.38603 0.904699,-0.38602 H 91.386366 114.206 l 1.08968,-2.38492 1.08969,-2.38491 3.9965,-12.40153 3.9965,-12.40154 4.19975,-13.03751 4.19976,-13.0375 1.28078,-1.43096 1.28078,-1.43094 1.88484,0.0124 1.88483,0.0123 11.72499,1.22854 11.72499,1.22854 14.58475,1.65232 14.58474,1.6523 0.83134,0.91584 0.83134,0.91583 -1.29658,4.93568 -1.29657,4.93566 -2.20643,6.04178 -2.20643,6.04177 -5.12895,12.85747 -5.12895,12.85746 -1.09259,2.08797 -1.09258,2.08797 -1.5449,0.20124 -1.5449,0.20123 v 0.84369 0.84368 l 0.85793,0.36607 0.85792,0.36607 v 3.43996 3.43995 l -0.93467,0.86255 -0.93467,0.86255 -72.846979,0.24299 -72.846997,0.24298 z m 80.073116,-0.0738 v -3.17988 H 65.8994 26.720764 v 3.17988 3.17988 H 65.8994 105.07803 Z m 2.84263,1.31793 0.69361,-1.86195 1.09163,-1.09851 1.09164,-1.0985 v 0.61098 0.61099 l -1.45497,2.19048 -1.45498,2.19048 6.12725,0.1816 6.12725,0.1816 0.47529,-0.81758 0.47528,-0.81757 0.42896,0.72155 0.42897,0.72156 6.57743,-0.32943 6.57743,-0.32942 1.29022,-2.77703 1.29022,-2.77706 -3.57802,0.0752 -3.57802,0.0752 1.71585,0.48548 1.71586,0.48548 -7.89809,0.0752 -7.89807,0.0752 0.35348,-0.63597 0.35348,-0.63598 -2.75051,0.005 -2.75052,0.005 -1.33256,2.59422 -1.33255,2.59424 -0.31121,-0.34606 -0.31123,-0.34605 1.19553,-2.25308 1.19551,-2.25306 -1.55358,0.001 -1.55357,0.001 -1.57287,2.76846 -1.57286,2.76844 v 0.4103 0.4103 h 0.50256 0.50256 l 0.6936,-1.86197 z m 11.23965,-1.33158 0.58423,-0.64963 2.24692,0.58574 2.24693,0.58576 -2.83116,0.0638 -2.83115,0.0639 z m 51.9823,0.80862 -0.11119,-1.74893 -0.15719,-1.27195 -0.1572,-1.27195 -0.43661,1.90793 -0.4366,1.90793 -0.0677,-1.74894 -0.0677,-1.74894 h -5.60131 -5.60131 l -0.97239,2.7029 -0.9724,2.7029 0.33253,-2.7029 0.33251,-2.7029 h -8.2535 -8.25349 l -1.07806,2.22592 -1.07805,2.22591 h -0.45658 -0.45657 l 0.87261,-1.87634 0.87261,-1.87635 v -0.3871 -0.3871 l -0.58012,0.39866 -0.58013,0.39868 -1.14734,2.50075 -1.14736,2.50076 h 17.65683 17.65683 z m -24.31217,-1.74887 v -0.95397 h 0.55402 0.55399 l -0.32921,0.95397 -0.32923,0.95396 h -0.22478 -0.22479 z m 2.62123,0.40334 -0.44797,-0.80595 0.34325,-0.38168 0.34326,-0.38167 0.34555,0.38424 0.34555,0.38424 -0.24084,0.80339 -0.24084,0.8034 z m 9.9617,-1.03931 v -0.95397 h 0.554 0.55399 l -0.32921,0.95397 -0.32922,0.95396 h -0.22478 -0.22478 z m -51.84991,-1.93462 -0.29576,-0.85702 3.04645,-0.19413 3.04646,-0.19411 0.1627,-0.95397 0.16269,-0.95396 -5.01892,0.0818 -5.01892,0.0818 -17.587494,0.0772 -17.587488,0.0772 v 0.63598 0.63598 h 18.874378 18.874384 l 0.0182,2.38491 0.0182,2.38491 0.80045,-1.17478 0.80046,-1.17478 -0.29576,-0.85702 z m 61.57307,-2.58526 v -0.88592 l -2.14481,0.0502 -2.14482,0.0502 0.7185,0.32209 0.71851,0.3221 -0.31926,0.57437 -0.31924,0.57438 0.88763,-0.37875 0.88763,-0.37875 v 0.68406 0.68406 l 0.85794,-0.36606 0.85792,-0.36608 v -0.88593 z m -51.14874,-0.24995 v -1.27195 h -1.30732 -1.30731 v 0.26597 0.26598 l -0.34718,1.00597 -0.34717,1.00599 h 1.65449 1.65449 z m 42.56947,0.67822 v -0.59373 l 1.57287,-0.26494 1.57287,-0.26495 -11.43902,-0.0977 -11.43901,-0.0977 -8.29329,-0.29579 -8.29329,-0.29581 1.00092,0.34476 1.00091,0.34476 v 0.47094 0.47093 l -3.35873,-0.27014 -3.35873,-0.27015 -0.3927,0.70654 -0.39271,0.70655 h 20.90996 20.90995 z m 12.9794,-3.42751 0.68243,-0.74858 3.68495,-9.53964 3.68495,-9.53964 3.52702,-8.80833 3.52701,-8.80834 1.71991,-5.70821 1.7199,-5.70823 -0.62992,-0.84398 -0.62994,-0.84398 -4.1228,-0.41868 -4.12279,-0.41867 -16.87256,-1.85033 -16.87255,-1.85033 -5.87723,-0.71961 -5.87723,-0.71961 -1.35798,0.379 -1.358,0.37899 -0.57167,1.75276 -0.57168,1.75277 -7.44523,23.31985 -7.44523,23.31986 -1.1593,2.91416 -1.1593,2.91416 12.1218,0.0887 12.12179,0.0887 14.29878,0.44564 14.29877,0.44564 2.00182,-0.26275 2.00183,-0.26273 z m -54.43669,-5.20041 0.36732,-1.90793 2.61063,-7.47272 2.61062,-7.47272 h 0.48986 0.48987 v 0.30758 0.30757 l -2.91227,8.11911 -2.91226,8.11911 -0.55554,0.95397 -0.55555,0.95396 z m 8.32931,-24.22009 0.0451,-1.21895 0.3004,0.83471 0.3004,0.83472 -0.34555,0.38424 -0.34556,0.38424 0.0451,-1.21896 z m 1.6707,-5.80691 v -0.6661 l 2.03981,-6.26587 2.03981,-6.26588 0.32845,-0.32875 0.32845,-0.32875 -0.39726,1.90793 -0.39725,1.90793 -1.74197,5.0878 -1.74197,5.08781 -0.22904,0.265 -0.22903,0.26499 z m 32.71225,-6.6912 -4.17857,-0.61503 0.17491,-2.00261 0.17492,-2.0026 2.41401,-0.19465 2.41402,-0.19466 4.07668,0.62818 4.07668,0.6282 0.30038,0.33399 0.30039,0.33402 -0.36339,1.05302 -0.36341,1.05301 -0.75279,-0.6947 -0.75281,-0.69469 -3.95902,-0.63628 -3.95903,-0.63629 -1.28689,-0.0126 -1.2869,-0.0126 v 0.87184 0.87186 l 4.64764,0.45079 4.64763,0.45081 0.78261,0.33393 0.78262,0.33394 -0.31645,0.56933 -0.31643,0.56934 -1.53913,-0.0853 -1.5391,-0.0853 z m 19.62124,-7.56205 -4.00365,-0.555 -0.85793,-0.29835 -0.85792,-0.29836 5.07035,0.30715 5.07035,0.30717 0.93513,0.6073 0.93514,0.6073 -1.14391,-0.0611 -1.1439,-0.0611 -4.00366,-0.555 z m -26.30973,-3.43451 -3.43172,-0.83188 4.85394,0.36047 4.85393,0.36047 1.43753,0.48607 1.43753,0.48606 -2.85975,-0.0147 -2.85977,-0.0146 z m -20.87621,-0.092 v -0.64826 l 1.14741,-1.15463 1.1474,-1.15463 0.28023,0.31158 0.2802,0.31159 -1.42762,1.49131 -1.42762,1.49131 z m 7.43536,-1.48138 -0.85792,-0.61649 1.82508,-0.01 1.82509,-0.01 0.35349,0.63599 0.35347,0.63596 -1.32064,-0.01 -1.32064,-0.01 z m -120.643121,63.7566 -0.577539,-2.38491 -1.182923,-6.35976 -1.182923,-6.35976 -1.367832,-10.4936 -1.367843,-10.4936 -0.881474,-8.58568 -0.881475,-8.58568 -0.637576,-8.48586 -0.637588,-8.48586 1.336593,-1.62128 1.336582,-1.62129 3.431711,-2.52155 3.4317,-2.52154 6.291464,0.37205 6.291453,0.37204 5.147563,1.01138 5.147557,1.01136 0.533821,0.58208 0.53382,0.58208 -0.253307,0.28166 -0.25331,0.28166 -3.712217,-0.88583 -3.712216,-0.88582 -7.453876,-0.77222 -7.453865,-0.77221 -2.933234,1.77517 -2.933245,1.77518 -1.753648,2.01184 -1.753649,2.01185 1.154723,12.70439 1.154735,12.70438 1.428869,11.44758 1.42887,11.44756 1.978808,11.25511 1.978809,11.25509 v 0.66946 0.66945 h -0.549905 -0.549904 z m 9.708236,-10.08143 -1.166268,-4.19865 -2.280395,-12.45984 -2.280383,-12.45985 -1.779788,-17.41005 -1.779777,-17.41006 0.341883,-0.38015 0.341883,-0.38015 0.311301,0.34615 0.311301,0.34614 1.961969,17.0902 1.96197,17.09019 1.174382,7.21005 1.174371,7.21005 1.985887,9.22964 1.985887,9.22964 v 0.57267 0.57268 h -0.548972 -0.548972 z m 48.03815,-1.36613 -0.607852,-2.38491 -0.358435,-3.65687 -0.35843,-3.65685 h 0.557222 0.557224 l 1.134659,6.04176 1.134653,6.04178 h -0.725588 -0.725594 z m 22.040215,-3.90984 -1.105939,-0.48157 0.576089,-0.3959 0.57607,-0.3959 4.70255,0.52715 4.70254,0.52713 0.35526,0.39502 0.35525,0.39504 -4.52794,-0.0448 -4.52795,-0.0447 -1.10593,-0.48156 z m -20.300712,-6.19255 -1.185413,-1.67571 v -0.86819 -0.86821 h 0.24198 0.241976 l 1.715852,1.90793 1.715853,1.90794 1.616864,-0.01 1.616856,-0.01 -0.69149,-0.48867 -0.691495,-0.48866 5.553075,-5.13193 5.55308,-5.13195 5.274184,-5.18125 5.27417,-5.18125 h 0.85417 0.85417 l 0.59208,1.23014 0.59208,1.23015 -0.002,3.38069 -0.002,3.38068 -1.13336,2.06692 -1.13334,2.06693 h -0.7963 -0.7963 l -0.60977,-0.81697 -0.60977,-0.81697 -0.17521,-3.58589 -0.1752,-3.58586 -6.005489,5.75 -6.005485,5.75001 -2.76813,2.46869 -2.76812,2.4687 0.7663,0.0203 0.7663,0.0203 -1.11023,0.93373 -1.11024,0.93374 h -2.136971 -2.136973 l -1.185414,-1.67571 z m 27.356182,-11.7747 0.62791,-2.00283 v -1.53684 -1.53684 l -0.59208,-1.23016 -0.59208,-1.23014 h -0.51067 -0.51067 l -0.3853,3.4291 -0.38531,3.42909 0.38269,1.34072 0.38269,1.34073 h 0.47746 0.47746 z m -33.34668,5.99537 -3.716411,-4.91113 0.686055,-0.48493 0.686055,-0.48493 -0.596167,-0.01 -0.596168,-0.01 -7.411143,1.59239 -7.411145,1.59241 -6.46374,0.9515 -6.463741,0.9515 H 40.70427 38.159785 v -0.72411 -0.72411 l 3.11614,-5.15866 3.116141,-5.15868 5.904657,-7.34176 5.904659,-7.34175 0.800617,-2.69746 0.800619,-2.69746 -1.385142,-1.03801 -1.385142,-1.03801 -2.404589,-2.81226 -2.404591,-2.81227 -1.31309,-2.96386 -1.313091,-2.96388 0.01672,-7.9497 0.01672,-7.94971 1.308955,-3.65 1.308954,-3.65 1.86786,-3.02775 1.86786,-3.02774 2.634633,-2.225918 2.634634,-2.22591 4.752921,-1.86877 4.752923,-1.86877 2.177938,-1.74565 2.177942,-1.74566 1.721144,-0.42035 1.721137,-0.42034 1.105489,1.11245 1.10549,1.11245 v 1.19237 1.19238 l 2.275014,-1.44994 2.27502,-1.44993 1.013698,0.70037 1.013702,0.7004 0.175829,2.28923 0.17584,2.28923 1.14779,0.40508 1.14778,0.40507 3.31603,3.607968 3.31604,3.60795 1.45837,3.20013 1.45838,3.20012 0.977325,3.73821 0.97733,3.73821 -0.26553,4.60067 -0.26553,4.60068 -2.004495,4.67146 -2.00449,4.67147 -2.70535,3.32878 -2.70536,3.32876 -4.128653,2.2689 -4.128657,2.26893 -4.039677,0.66669 -4.039683,0.66668 -3.736732,-0.64687 -3.736731,-0.64688 -3.425547,-1.53853 -3.425545,-1.53853 -0.62459,2.26292 -0.624591,2.26292 1.329851,1.60782 1.329851,1.60781 5.161733,7.75307 5.16173,7.75307 -0.83689,0.3571 -0.836896,0.3571 -1.100496,-1.43242 -1.100502,-1.43242 -4.690843,-7.31373 -4.690849,-7.31373 -0.676801,2.54391 -0.676802,2.5439 -1.345943,7.79022 -1.345943,7.79021 -0.714938,5e-4 -0.714939,4.9e-4 v -0.94384 -0.94384 l 1.454982,-7.66258 1.454981,-7.66256 0.371639,-1.09222 0.37164,-1.09223 -3.399486,4.07082 -3.399486,4.07082 -2.795198,3.87068 -2.795196,3.87067 -1.351446,2.38048 -1.351446,2.38048 v 0.33063 0.33061 h 1.982163 1.982162 l 6.454112,-1.00043 6.454112,-1.00044 11.153041,-2.53916 11.153042,-2.53914 2.352445,-0.34917 2.352446,-0.34915 0.936271,1.48635 0.936275,1.48635 -0.008,3.83336 -0.008,3.83333 -0.720821,1.58995 -0.720824,1.58993 -1.271652,0.20309 -1.271653,0.20309 -0.629443,-1.79302 -0.629438,-1.79304 0.309266,-4.29284 0.30927,-4.29284 -0.395686,0.0261 -0.395687,0.0261 -4.17129,1.08689 -4.171294,1.08688 3.162453,4.13385 3.162454,4.13384 0.0079,1.43095 0.0079,1.43095 h -0.258422 -0.258367 l -3.716404,-4.91113 z m 9.952642,-2.7061 v -3.72632 l -0.365569,-1.05929 -0.365573,-1.0593 -0.483596,0.84828 -0.483596,0.84831 -0.0087,3.86884 -0.0087,3.86887 0.36575,0.40669 0.365752,0.40669 0.492174,-0.33823 0.492176,-0.33823 v -3.72631 z m -4.721986,-27.62844 2.99935,-0.88785 2.720158,-1.45938 2.720162,-1.4594 2.69515,-3.06871 2.69516,-3.06874 1.78437,-4.15734 1.78437,-4.15735 0.31627,-4.64991 0.316285,-4.64992 -1.196515,-4.38017 -1.1965,-4.38018 -1.7925,-3.00912 -1.79251,-3.00914 -2.49637,-2.44337 -2.49637,-2.443368 -3.547811,-2.10264 -3.547817,-2.10264 -3.340959,3.84362 -3.340954,3.843618 v -0.28626 -0.28626 l 0.803586,-1.71735 0.803579,-1.717348 1.484223,-1.54181 1.484218,-1.54181 v -0.52511 -0.52511 h -4.261919 -4.261921 l -3.459415,4.56984 -3.459416,4.569838 v 0.51796 0.51797 h -0.586639 -0.586638 l 0.851846,-1.83169 0.851846,-1.83168 1.450645,-1.916978 1.450644,-1.91698 v -0.38517 -0.38519 h -1.31758 -1.317574 l -2.970699,1.64608 -2.970698,1.646068 -2.076629,2.64677 -2.07663,2.64676 -1.611675,3.88552 -1.611675,3.88553 -0.673357,4.29955 -0.673357,4.29954 0.345998,3.27344 0.345996,3.27344 0.961977,3.16894 0.961974,3.16894 3.494208,3.81586 3.494207,3.81586 3.250536,1.75477 3.250528,1.75478 3.028016,0.90627 3.028017,0.90626 3.145729,0.0343 3.145729,0.0343 2.999351,-0.88786 z m -3.289026,-6.05102 -1.433583,-0.4849 -1.785825,-1.02685 -1.785831,-1.02687 -0.368749,-1.06851 -0.368748,-1.06851 0.295933,-0.32906 0.295934,-0.32905 1.025353,1.0318 1.025353,1.03181 2.105512,0.97822 2.105511,0.97821 h 3.182145 3.18214 l 3.480421,-1.30372 3.48042,-1.30371 0.26884,0.29893 0.26885,0.29894 -1.33652,0.97243 -1.33651,0.97243 -3.408887,0.98632 -3.408884,0.98631 -2.024649,-0.0546 -2.024649,-0.0547 -1.433577,-0.48488 z m 12.395966,-15.0932 -0.3813,-0.42398 v -1.83083 -1.83084 l 1.43467,-1.59528 1.43467,-1.59527 0.63019,0.43308 0.6302,0.43309 -0.32456,2.22394 -0.32457,2.22393 -0.97102,1.19308 -0.97102,1.19308 h -0.38798 -0.38798 z m -7.816659,-3.25035 v -2.4024 l 0.890356,-1.41346 0.890362,-1.41346 h 0.837753 0.837759 l 0.607607,1.48284 0.607612,1.48283 -0.876664,2.33302 -0.876663,2.33302 H 82.51516 81.056097 Z m 12.673799,-7.56877 -1.31662,-2.23337 0.32338,-0.35959 0.3234,-0.35959 1.09038,1.09725 1.09039,1.09724 0.2893,1.23013 0.2893,1.23013 -0.38645,0.26559 -0.38646,0.26557 z m -15.533553,-3.26432 v -0.60167 l 1.572864,-0.65353 1.572865,-0.65352 1.000914,-0.35763 1.000914,-0.35765 v 0.63176 0.63176 l -1.286889,0.53531 -1.28689,0.53531 -1.286889,0.44577 -1.286889,0.44576 z m 5.919313,-17.629718 -0.322191,-0.9336 h -0.987381 -0.987388 l -0.399239,0.44393 -0.399238,0.44393 1.297653,0.77222 1.297647,0.77223 0.411165,-0.28256 0.411158,-0.28256 z m -7.20265,-1.72857 -0.234758,-0.79498 -1.386283,-0.18595 -1.386289,-0.18595 -1.143381,0.9607 -1.143387,0.96069 2.764427,0.0203 2.764433,0.0203 -0.234762,-0.79496 z m 27.845384,88.897878 -1.11023,-0.93374 2.43079,-0.0203 2.4308,-0.0203 v 0.56793 0.56793 l -0.90472,0.38604 -0.9047,0.38603 h -0.41586 -0.41584 z m 8.46995,-2.03136 -0.71494,-0.32077 v -0.58298 -0.58299 h 0.7486 0.74862 l 1.11022,0.93374 1.11024,0.93374 -1.1439,-0.03 -1.14391,-0.03 -0.71493,-0.32079 z m -8.46538,-1.11377 -1.113,-0.90494 0.37908,-0.42152 0.37907,-0.42151 1.10042,0.65485 1.10042,0.65486 1.37937,-0.37185 1.37935,-0.37187 -0.57196,0.65102 -0.57194,0.65101 -1.17391,0.39246 -1.1739,0.39244 z m -28.293377,-3.90758 -0.675051,-2.27438 0.352511,-0.39198 0.35251,-0.39198 0.488578,0.59359 0.488571,0.59357 0.36192,1.70995 0.361919,1.70996 -0.527957,0.36283 -0.527956,0.36282 z m -3.024899,-13.88364 -1.5398,-6.60667 v -1.34303 -1.34303 h 0.549907 0.549902 l 0.56069,2.3849 0.560683,2.38491 1.145801,5.04607 1.1458,5.04605 -0.28832,0.51874 -0.288315,0.51872 h -0.428277 -0.42827 z m 12.022184,2.72628 -1.022757,-0.66184 -1.836998,0.39315 -1.836992,0.39315 1.110231,-0.98393 1.110231,-0.98393 h 1.492146 1.492147 l 0.68634,0.76317 0.68634,0.76317 v 0.50878 0.50878 l -0.42896,-0.0193 -0.42897,-0.0193 -1.022758,-0.66182 z m 33.766952,-2.58258 -1.57287,-0.63877 v -0.58298 -0.58297 h 0.25907 0.25906 l 1.45679,0.73806 1.45679,0.73805 v 0.5339 0.53389 l -0.14299,-0.0502 -0.14299,-0.0502 -1.57286,-0.63877 z m -9.77987,-1.25498 -1.05761,-0.68351 -1.65915,0.36896 -1.65916,0.36898 v -0.54057 -0.54059 l 1.76268,-0.39199 1.76267,-0.392 1.09708,0.65287 1.09708,0.65286 v 0.61359 0.61361 l -0.14298,-0.0193 -0.14299,-0.0193 -1.05762,-0.68353 z m -27.825903,-1.18564 v -0.63598 h 1.968072 1.968077 l 0.35348,0.63598 0.35349,0.63598 h -2.321558 -2.321561 z m 23.735963,-3.17988 0.35349,-0.63597 h 2.25405 2.25404 v 0.63597 0.63598 h -2.60753 -2.60753 z m 14.86782,-10.38852 -4.57851,-2.09756 -1.56996,-1.14383 -1.56996,-1.14383 v -0.54454 -0.54453 l 6.39709,3.49104 6.3971,3.49103 0.27566,0.30652 0.27567,0.30652 -0.52429,-0.0121 -0.52429,-0.0121 z m 75.2507,0.73868 -0.0363,-1.70015 -1.48071,-1.95671 -1.48073,-1.95673 h 0.82012 0.82013 l 0.85964,1.11296 0.85963,1.11296 0.35473,1.11225 0.35471,1.11224 -0.51751,1.43166 -0.51749,1.43166 z m -66.66853,-3.51802 -1.71585,-1.03339 0.77451,-0.28818 0.77451,-0.28819 1.21143,1.34704 1.21143,1.34703 -0.2701,-0.0255 -0.27008,-0.0255 -1.71585,-1.03338 z"
       id="path172" />
  </g>
</svg>
