<?xml version="1.0" encoding="UTF-8" standalone="no"?>
<svg
   version="1.0"
   width="2300pt"
   height="600pt"
   viewBox="0 0 2300 600"
   preserveAspectRatio="xMidYMid meet"
   id="svg1048"
   sodipodi:docname="logo.svg"
   inkscape:version="1.1 (ce6663b3b7, 2021-05-25)"
   xmlns:inkscape="http://www.inkscape.org/namespaces/inkscape"
   xmlns:sodipodi="http://sodipodi.sourceforge.net/DTD/sodipodi-0.dtd"
   xmlns="http://www.w3.org/2000/svg"
   xmlns:svg="http://www.w3.org/2000/svg"
   xmlns:rdf="http://www.w3.org/1999/02/22-rdf-syntax-ns#"
   xmlns:cc="http://creativecommons.org/ns#"
   xmlns:dc="http://purl.org/dc/elements/1.1/">
  <defs
     id="defs1052" />
  <sodipodi:namedview
     pagecolor="#ffffff"
     bordercolor="#666666"
     borderopacity="1"
     objecttolerance="10"
     gridtolerance="10"
     guidetolerance="10"
     inkscape:pageopacity="0"
     inkscape:pageshadow="2"
     inkscape:window-width="1366"
     inkscape:window-height="694"
     id="namedview1050"
     showgrid="false"
     inkscape:zoom="0.22978058"
     inkscape:cx="2025.8457"
     inkscape:cy="916.09134"
     inkscape:window-x="0"
     inkscape:window-y="0"
     inkscape:window-maximized="1"
     inkscape:current-layer="svg1048"
     inkscape:pagecheckerboard="0"
     inkscape:document-units="pt"
     height="1213pt"
     width="2300pt" />
  <metadata
     id="metadata1042">
Created by potrace 1.15, written by Peter Selinger 2001-2017
<rdf:RDF>
  <cc:Work
     rdf:about="">
    <dc:format>image/svg+xml</dc:format>
    <dc:type
       rdf:resource="http://purl.org/dc/dcmitype/StillImage" />
  </cc:Work>
</rdf:RDF>
</metadata>
  <g
     transform="matrix(0.02136107,0,0,-0.01932917,214.75692,284.06127)"
     fill="#000000"
     stroke="none"
     id="g1046">
    <path
       d="m 11500,11960 c -12,-8 -9,-10 13,-10 53,0 181,-32 244,-60 114,-52 208,-162 233,-275 54,-240 -61,-555 -328,-897 -42,-54 -80,-98 -84,-98 -5,0 -8,26 -8,58 0,92 -38,561 -61,738 -19,160 -55,318 -84,373 -18,35 -71,81 -93,81 -43,-1 -111,-46 -192,-128 -47,-48 -190,-217 -319,-375 -128,-158 -298,-362 -377,-452 -141,-161 -460,-495 -473,-495 -4,0 -13,16 -20,35 -18,51 -58,95 -87,95 -48,0 -79,-42 -410,-562 -42,-65 -123,-148 -146,-148 -4,0 16,48 44,108 72,154 126,324 146,456 14,99 14,129 3,252 -41,437 -146,764 -244,764 -35,0 -74,-44 -119,-135 -76,-150 -411,-790 -496,-945 -221,-406 -391,-667 -615,-945 -238,-296 -336,-400 -587,-622 -504,-447 -936,-863 -1105,-1067 -297,-356 -478,-694 -689,-1286 -92,-258 -128,-350 -135,-350 -3,0 -49,66 -101,148 -309,480 -500,643 -835,713 -133,29 -379,5 -550,-53 -182,-61 -363,-175 -511,-322 -82,-82 -108,-115 -138,-178 -31,-64 -51,-89 -119,-151 -139,-124 -237,-199 -252,-193 l -105,-94 c 0,-3 -57,-45 -126,-95 -143,-103 -167,-123 -159,-136 15,-23 164,-2 385,55 l 95,24 175,40 c 0,4 43,19 95,33 l 95,26 42,-24 c 157,-89 319,-218 404,-321 105,-128 138,-222 169,-482 32,-269 101,-509 189,-657 129,-217 328,-423 597,-621 141,-102 433,-266 725,-405 345,-164 805,-279 1314,-327 221,-22 446,-84 653,-183 397,-189 667,-473 989,-1042 173,-305 306,-671 459,-1258 38,-148 76,-279 84,-291 37,-56 150,-83 212,-51 15,8 62,24 103,36 83,24 206,78 260,113 19,13 68,43 109,67 41,24 95,56 120,72 101,61 112,61 91,-4 -30,-88 -120,-171 -218,-200 -65,-19 -35,-31 48,-19 192,27 306,145 329,339 4,33 9,62 12,64 2,2 38,30 79,63 41,32 135,112 208,177 85,76 138,117 147,113 23,-8 19,-110 -6,-185 -21,-62 -68,-121 -129,-164 l -25,-18 34,6 c 55,8 135,49 173,88 77,77 106,199 74,310 -9,30 -16,63 -16,73 0,10 51,70 113,133 62,64 138,145 168,181 49,57 58,63 72,51 22,-17 37,-74 37,-136 0,-64 -35,-140 -84,-183 -45,-39 -41,-40 31,-5 93,46 163,142 163,226 0,24 -20,91 -55,186 l -16,43 63,82 c 34,44 66,83 70,84 4,2 8,10 8,18 0,8 4,14 8,14 4,0 15,15 23,33 9,17 34,68 56,112 74,147 79,216 20,272 -39,38 -54,42 -333,93 -593,109 -903,223 -1289,474 -64,42 -120,76 -126,76 -5,0 -9,5 -9,10 0,6 -5,10 -10,10 -31,0 -413,279 -526,384 -40,36 -77,66 -82,66 -14,0 -228,228 -442,470 -95,107 -247,274 -336,372 -124,133 -164,183 -164,202 0,25 3,26 51,26 110,0 386,75 502,136 26,14 47,23 47,20 0,-2 52,24 116,60 l 116,65 186,9 c 188,9 228,14 357,45 222,54 372,193 351,326 -5,32 -44,133 -46,119 -1,-3 -2,-27 -3,-55 -5,-105 -80,-197 -214,-261 -87,-42 -236,-81 -344,-90 -79,-7 -79,-7 -79,17 0,18 14,33 52,59 124,84 287,225 476,413 111,110 202,204 202,209 0,13 68,37 138,49 285,48 507,169 562,307 18,47 7,131 -25,186 -15,25 -28,46 -30,46 -1,0 0,-20 2,-44 3,-25 -2,-67 -12,-101 -32,-111 -174,-220 -359,-276 -128,-39 -127,-19 10,153 209,262 226,285 395,538 l 64,95 105,37 c 403,144 588,346 491,536 -22,42 -90,111 -76,77 4,-11 10,-48 13,-82 8,-115 -50,-214 -181,-307 -68,-48 -198,-116 -222,-116 -17,0 -21,49 -6,65 37,39 267,509 358,734 30,74 61,140 69,148 7,8 67,44 131,80 210,117 366,245 449,370 104,157 82,309 -62,424 -36,28 -67,50 -69,47 -3,-2 7,-20 20,-40 46,-67 58,-112 53,-196 -5,-88 -32,-149 -104,-243 -83,-109 -284,-269 -336,-269 -16,0 -16,33 0,71 64,158 186,647 237,949 15,85 29,162 32,170 3,8 5,25 4,38 -2,17 14,38 60,80 363,332 507,531 541,749 28,180 -80,324 -291,387 -71,21 -85,20 -40,-4 50,-26 116,-96 147,-155 25,-46 27,-60 27,-165 0,-111 -1,-118 -39,-205 -48,-112 -122,-225 -220,-337 -73,-84 -111,-118 -130,-118 -10,0 -6,67 19,395 8,110 18,355 22,545 l 6,345 105,110 c 241,252 399,498 467,730 33,111 37,278 9,361 -43,128 -144,212 -314,260 -74,21 -315,31 -340,14 z"
       id="path1044"
       sodipodi:nodetypes="cscccssccccccscscscccsccccccscccccccccccccccccccccccccccccscccccccccccccccscccsccsccccsscccccssscsccsscscccccccccsccscccscccccccccccsccccccccccsccsccccccsccscccccccc"
       style="fill:#46bf31;fill-opacity:0.819729" />
  </g>
  <g
     transform="matrix(0.04426819,0,0,-0.05398951,27.277519,532.17713)"
     fill="#000000"
     stroke="none"
     id="g576"
     style="fill:#008000">
    <path
       d="m 3262,8393 c -223,-569 -276,-1113 -147,-1501 129,-387 422,-663 855,-805 159,-53 175,-54 101,-10 -177,105 -354,353 -480,670 -59,150 -192,568 -191,599 1,5 20,-43 44,-106 136,-362 282,-639 412,-780 60,-64 153,-119 165,-98 18,33 40,234 40,365 -1,371 -91,620 -429,1185 -148,247 -244,429 -282,536 -13,34 -26,65 -31,67 -4,3 -30,-52 -57,-122 z"
       id="path562"
       style="fill:#008000" />
    <path
       d="m 4932,7930 c -105,-28 -203,-83 -287,-162 -203,-189 -326,-479 -392,-923 -26,-173 -26,-729 0,-930 48,-368 127,-687 233,-938 l 32,-77 -46,33 C 3241,5827 1893,6267 258,6307 c -142,3 -258,3 -258,-1 0,-16 61,-96 88,-114 24,-17 53,-20 282,-25 1394,-35 2589,-464 3829,-1375 391,-288 813,-644 1311,-1110 144,-135 400,-383 400,-387 0,-1 -30,6 -67,16 -222,62 -531,117 -838,150 -264,29 -794,31 -1040,5 -849,-90 -1474,-336 -1879,-741 -207,-206 -354,-475 -415,-757 -42,-194 -50,-435 -20,-627 38,-243 224,-507 432,-611 69,-35 88,-40 146,-40 76,0 105,12 131,55 l 19,30 h -97 c -85,0 -104,3 -152,27 -162,80 -316,276 -380,483 -18,59 -21,94 -21,230 0,294 46,500 164,729 238,465 741,775 1492,920 672,129 1551,107 2395,-60 168,-33 429,-101 451,-116 9,-7 147,-139 306,-292 762,-739 1285,-1190 1806,-1560 1275,-905 2571,-1259 4036,-1101 73,8 136,17 139,20 11,11 281,519 278,522 -2,2 -71,-5 -152,-16 -642,-87 -1306,-100 -1854,-35 -543,64 -1080,208 -1550,414 -110,48 -428,206 -448,222 -10,8 1,20 48,50 79,52 141,124 194,228 112,219 157,419 231,1040 48,405 62,507 64,455 2,-77 -20,-726 -29,-850 -37,-480 -135,-814 -272,-930 -17,-14 -29,-27 -27,-29 10,-10 229,72 344,128 597,293 770,775 584,1629 -40,181 -112,431 -254,878 -128,403 -202,654 -241,817 -14,59 -28,116 -31,126 -3,13 -19,-21 -44,-98 -72,-220 -201,-459 -467,-865 -414,-633 -551,-908 -623,-1251 -28,-136 -31,-385 -5,-500 54,-241 141,-425 301,-635 75,-98 227,-193 64,-100 -393,241 -761,516 -1134,849 -119,106 -530,494 -597,563 l -46,48 -26,160 c -62,400 -86,674 -86,1008 0,484 81.0424,918.2145 260.038,1206.5191 647.1517,742.2677 448.5968,768.8417 -64.9898,115.7279 C 6685.0482,4835.247 6539,4301 6540,3550 c 1,-140 5,-316 10,-390 4,-74 7,-136 6,-137 -1,-2 -202,198 -447,443 -441,442 -702,694 -956,918 -101,90 -142,134 -176,189 -308,503 -498,1039 -562,1590 -21,174 -20,488 0,658 82,671 421,1106 811,1040 75,-12 76,-12 115,13 21,15 39,30 39,35 0,18 -96,33 -235,37 -117,3 -152,1 -213,-16 z"
       id="path564"
       sodipodi:nodetypes="ccccccccsccccscccccccsccsccscccccccsscccsccccccscccccccccccccccsccccccccccccscc"
       style="fill:#00ff00" />
    <path
       d="m 2215,5539 c -126,-18 -273,-76 -384,-151 -78,-53 -203,-188 -278,-300 -69,-102 -124,-210 -316,-610 -47,-98 -108,-215 -135,-260 -66,-109 -164,-222 -240,-278 -65,-46 -72,-57 -28,-41 14,6 135,31 269,56 532,100 803,164 1067,252 605,201 966,466 1128,829 42,94 73,215 59,232 -40,51 -380,172 -483,172 -43,0 -241,-93 -386,-182 -223,-137 -446,-333 -587,-515 -35,-46 -66,-83 -67,-83 -7,0 38,105 67,160 106,199 345,418 610,559 102,55 245,111 281,111 30,0 16,10 -29,21 -147,35 -406,48 -548,28 z"
       id="path566"
       style="fill:#008000" />
    <path
       d="m 5350,5267 c 0,-4 22,-37 49,-74 27,-38 99,-149 162,-248 320,-511 530,-687 845,-712 99,-7 98,-8 58,95 -92,231 -265,442 -425,517 -62,28 -52,31 44,10 170,-36 293,-150 425,-395 39,-71 41,-73 51,-48 22,57 34,153 28,228 -9,139 -94,275 -229,368 -161,111 -441,203 -728,241 -107,14 -280,25 -280,18 z"
       id="path568"
       style="fill:#008000" />
    <path
       d="m 7400,4750 c -182,-358 -276,-613 -336,-914 -32,-162 -43,-421 -24,-573 56,-451 306,-808 741,-1059 44,-26 82,-44 84,-42 5,5 -72,246 -164,507 -81,233 -134,417 -155,543 -16,90 -33,307 -23,298 2,-3 14,-55 26,-117 42,-220 124,-449 305,-853 54,-118 140,-315 193,-438 53,-122 97,-221 99,-220 1,2 -9,50 -22,108 -56,249 -68,522 -31,695 36,162 112,326 227,486 l 68,95 -9,50 c -43,232 -165,426 -539,859 -204,236 -318,422 -363,591 l -24,89 z"
       id="path570"
       style="fill:#008000" />
    <path
       d="m 4178,3120 c -325,-68 -561,-211 -703,-425 -65,-98 -106,-191 -174,-400 -63,-191 -107,-280 -169,-336 -25,-23 -37,-39 -26,-34 10,4 179,60 374,125 399,132 482,164 590,222 282,153 439,369 514,709 14,64 26,121 26,128 0,16 -95,14 -181,-4 -93,-20 -197,-70 -273,-132 -33,-26 -132,-126 -219,-221 -88,-95 -162,-171 -164,-168 -7,7 46,105 97,181 70,103 170,197 300,283 63,41 119,79 125,84 14,12 -19,9 -117,-12 z"
       id="path572"
       style="fill:#008000" />
    <path
       d="m 6645,1750 c -210,-18 -408,-58 -935,-190 -368,-92 -552,-129 -705,-140 -110,-8 -273,2 -320,20 -18,7 -25,6 -25,-2 0,-19 145,-281 222,-402 337,-529 726,-833 1173,-918 110,-21 359,-15 481,10 316,67 638,234 961,497 120,98 426,402 421,418 -6,19 -156,65 -286,89 -97,18 -157,21 -357,22 -141,1 -285,-5 -350,-12 -60,-7 -236,-29 -390,-48 -380,-46 -380,-46 -375,-40 9,8 430,114 560,139 372,75 664,93 1003,64 75,-7 137,-9 137,-5 0,4 -27,40 -59,81 -170,211 -416,353 -696,402 -111,19 -327,26 -460,15 z"
       id="path574"
       style="fill:#008000" />
  </g>
  <text
     xml:space="preserve"
     style="font-size:300px;line-height:1.25;font-family:'Nimbus Mono PS';-inkscape-font-specification:'Nimbus Mono PS';fill:#fefefe;fill-opacity:1;stroke-width:0.75"
     x="680.74701"
     y="387.67438"
     id="text7345"><tspan
       sodipodi:role="line"
       id="tspan7343"
       style="font-size:300px;fill:#fefefe;fill-opacity:1;stroke-width:0.75"
       x="680.74701"
       y="387.67438">Mockexams</tspan></text>
</svg>
