<?xml version="1.0" encoding="UTF-8" standalone="no"?>
<svg
   width="297mm"
   height="210mm"
   viewBox="0 0 297 210"
   version="1.1"
   id="svg8"
   inkscape:version="1.1 (ce6663b3b7, 2021-05-25)"
   sodipodi:docname="settings.svg"
   xmlns:inkscape="http://www.inkscape.org/namespaces/inkscape"
   xmlns:sodipodi="http://sodipodi.sourceforge.net/DTD/sodipodi-0.dtd"
   xmlns="http://www.w3.org/2000/svg"
   xmlns:svg="http://www.w3.org/2000/svg"
   xmlns:rdf="http://www.w3.org/1999/02/22-rdf-syntax-ns#"
   xmlns:cc="http://creativecommons.org/ns#"
   xmlns:dc="http://purl.org/dc/elements/1.1/">
  <defs
     id="defs2" />
  <sodipodi:namedview
     id="base"
     pagecolor="#ffffff"
     bordercolor="#666666"
     borderopacity="1.0"
     inkscape:pageopacity="0.0"
     inkscape:pageshadow="2"
     inkscape:zoom="0.35"
     inkscape:cx="307.14286"
     inkscape:cy="507.14286"
     inkscape:document-units="mm"
     inkscape:current-layer="layer1"
     inkscape:document-rotation="0"
     showgrid="false"
     inkscape:window-width="1366"
     inkscape:window-height="694"
     inkscape:window-x="0"
     inkscape:window-y="0"
     inkscape:window-maximized="1"
     inkscape:pagecheckerboard="0" />
  <metadata
     id="metadata5">
    <rdf:RDF>
      <cc:Work
         rdf:about="">
        <dc:format>image/svg+xml</dc:format>
        <dc:type
           rdf:resource="http://purl.org/dc/dcmitype/StillImage" />
      </cc:Work>
    </rdf:RDF>
  </metadata>
  <g
     inkscape:label="Layer 1"
     inkscape:groupmode="layer"
     id="layer1">
    <g
       id="settingsicon"
       transform="matrix(1.2451931,0,0,1.2451931,-30.639759,-25.605209)"
       style="fill:#fefefe;fill-opacity:0.99607843">
      <path
         style="fill:#fefefe;fill-opacity:0.99607843;stroke-width:0.915521"
         d="m 140.33045,177.6551 c 2.14003,-0.19274 5.6419,-0.19274 7.78193,0 2.14003,0.19276 0.3891,0.35047 -3.89097,0.35047 -4.28006,0 -6.03099,-0.15771 -3.89096,-0.35047 z m 0.0242,-144.653547 c 2.15334,-0.193399 5.44922,-0.190678 7.32417,0.006 1.87498,0.196728 0.11316,0.354964 -3.91514,0.351639 l -7.32417,-0.006 3.91517,-0.351635 z"
         id="path967" />
      <path
         style="fill:#fefefe;fill-opacity:0.99607843;stroke-width:0.915521"
         d="m 140.78821,169.41884 c 1.88826,-0.19752 4.97815,-0.19752 6.86641,0 1.88826,0.19752 0.34332,0.35912 -3.43321,0.35912 -3.77652,0 -5.32146,-0.1616 -3.4332,-0.35912 z"
         id="path965" />
      <path
         style="fill:#fefefe;fill-opacity:0.99607843;stroke-width:0.915521"
         d="m 140.78821,41.245849 c 1.88826,-0.197519 4.97815,-0.197519 6.86641,0 1.88826,0.197518 0.34332,0.359124 -3.43321,0.359124 -3.77652,0 -5.32146,-0.161606 -3.4332,-0.359124 z"
         id="path963" />
      <path
         style="fill:#fefefe;fill-opacity:0.99607843;stroke-width:0.915521"
         d="m 94.713968,158.41287 -2.219508,-2.51768 2.517684,2.2195 c 2.353155,2.07447 2.937532,2.81586 2.219507,2.81586 -0.163988,0 -1.296946,-1.13296 -2.517683,-2.51768 z m 98.030072,0.22888 c 1.18263,-1.25884 2.35622,-2.2888 2.60799,-2.2888 0.25176,0 -0.50984,1.02996 -1.69246,2.2888 -1.18263,1.25884 -2.35622,2.2888 -2.60799,2.2888 -0.25176,0 0.50984,-1.02996 1.69246,-2.2888 z m -102.655162,-4.80649 -1.256503,-1.60216 1.602162,1.2565 c 0.881189,0.69108 1.602163,1.41205 1.602163,1.60216 0,0.75351 -0.751814,0.26853 -1.947822,-1.2565 z m 107.690532,-0.22888 c 0.91139,-1.00707 1.86307,-1.83104 2.11484,-1.83104 0.25177,0 -0.28792,0.82397 -1.19932,1.83104 -0.91139,1.00708 -1.86306,1.83104 -2.11483,1.83104 -0.25177,0 0.28792,-0.82396 1.19931,-1.83104 z"
         id="path961" />
      <path
         style="fill:#fefefe;fill-opacity:0.99607843;stroke-width:0.915521"
         d="m 89.747896,57.47664 c 0.911389,-1.007073 1.863063,-1.831043 2.114832,-1.831043 0.251768,0 -0.287922,0.82397 -1.19931,1.831043 -0.911389,1.007074 -1.863063,1.831043 -2.114832,1.831043 -0.251768,0 0.287922,-0.823969 1.19931,-1.831043 z m 106.157394,-2.059923 -3.61901,-3.890966 3.89097,3.619009 c 2.14003,1.990454 3.89097,3.741388 3.89097,3.890965 0,0.692663 -0.79729,-4.48e-4 -4.16293,-3.619008 z M 94.325503,52.899033 c 0.911392,-1.007073 1.863067,-1.831042 2.114836,-1.831042 0.251768,0 -0.287923,0.823969 -1.199315,1.831042 -0.911392,1.007074 -1.863063,1.831043 -2.114831,1.831043 -0.251769,0 0.287921,-0.823969 1.19931,-1.831043 z"
         id="path959" />
      <path
         style="fill:#fefefe;fill-opacity:0.99607843;stroke-width:0.915521"
         d="m 85.700328,65.182278 0.07228,-1.754749 0.48085,1.201622 c 0.264467,0.660892 0.231942,1.450529 -0.07228,1.754749 -0.30422,0.30422 -0.520603,-0.23651 -0.48085,-1.201622 z"
         id="path957" />
      <path
         style="fill:#fefefe;fill-opacity:0.99607843;stroke-width:0.915521"
         d="m 72.20908,105.54151 0.006,-7.32417 0.351636,3.91517 c 0.193399,2.15334 0.190678,5.44921 -0.006,7.32417 -0.196725,1.87495 -0.354961,0.11312 -0.351636,-3.91517 z m 143.73685,0 0.006,-7.32417 0.35164,3.91517 c 0.19339,2.15334 0.19067,5.44921 -0.006,7.32417 -0.19673,1.87495 -0.35497,0.11312 -0.35164,-3.91517 z"
         id="path955" />
      <path
         style="fill:#fefefe;fill-opacity:0.99607843;stroke-width:0.915521"
         d="m 132.59957,175.21152 -2.56874,-2.19842 -1.37328,-6.60757 -1.37328,-6.60759 -4.81779,-1.79069 -4.8178,-1.79071 -5.58614,3.73029 -5.58616,3.73029 h -2.75769 -2.7577 l -6.777485,-6.63753 -6.777489,-6.63753 -0.513972,-3.20496 -0.513972,-3.20496 3.827855,-5.73226 3.827854,-5.73226 -2.056177,-4.9609 -2.056178,-4.9609 -1.917808,-0.45564 c -1.054794,-0.25061 -3.86318,-0.73625 -6.240858,-1.07921 l -4.32305,-0.62356 -2.314479,-2.14499 -2.314479,-2.14498 v -9.91074 -9.910745 l 1.376121,-1.964688 c 1.465369,-2.092107 4.870969,-3.428165 11.263237,-4.418703 l 3.941905,-0.610833 2.229574,-5.041466 2.229576,-5.041465 -3.653797,-5.208845 -3.653796,-5.208845 v -3.472673 -3.472674 l 5.722008,-5.992882 c 3.147104,-3.296086 6.925168,-6.507411 8.3957,-7.13628 l 2.67368,-1.143398 2.622,0.751983 c 1.44211,0.41359 4.56479,2.144551 6.9393,3.846579 l 4.31728,3.094596 5.02877,-2.060836 5.02879,-2.060837 0.58972,-3.038793 c 0.32435,-1.671337 0.86936,-4.62849 1.21113,-6.571451 l 0.6214,-3.532659 2.36235,-2.18935 2.36236,-2.18935 h 9.54971 9.54971 l 2.56529,2.565298 2.5653,2.565299 0.67402,4.987752 c 0.92781,6.86591 1.42035,7.515854 7.17909,9.47331 l 5.05417,1.717964 4.82068,-3.538714 4.8207,-3.538713 h 3.54819 3.54821 l 6.80306,6.959023 6.80307,6.959025 v 3.168006 3.168006 l -3.72323,5.315094 -3.72324,5.315094 2.21593,5.131045 2.21594,5.131046 6.09524,0.999771 6.09523,0.999771 2.27847,2.140515 2.27848,2.140515 v 10.209318 10.20932 l -2.27848,2.14051 -2.27847,2.14052 -6.09523,0.99977 -6.09524,0.99977 -2.21594,5.13104 -2.21593,5.13105 3.72324,5.3151 3.72323,5.3151 v 3.168 3.16801 l -6.80307,6.95902 -6.80306,6.95903 h -3.55535 -3.55535 l -4.91415,-3.53047 -4.91415,-3.53047 -5.09779,1.81475 -5.09778,1.81477 -1.37328,6.63339 -1.37328,6.63338 -2.56874,2.19842 -2.56874,2.19842 h -9.05311 -9.0531 z m 19.92263,-11.76328 c 1.42757,-8.29072 2.11752,-9.6673 5.22958,-10.43399 1.37019,-0.33756 4.94969,-1.75095 7.95444,-3.14088 l 5.46319,-2.52712 1.86098,0.96652 c 1.02354,0.53159 3.77012,2.35211 6.1035,4.04559 5.37865,3.90364 5.01746,3.96336 10.67475,-1.76508 l 4.78396,-4.84414 -4.18024,-5.91323 -4.18024,-5.91324 0.42571,-1.83104 c 0.45951,-1.97639 4.76686,-12.85787 5.97963,-15.1061 l 0.7408,-1.37328 7.23595,-1.39835 7.23594,-1.39835 v -7.27404 -7.274036 l -7.23594,-1.398349 -7.23595,-1.398349 -0.7408,-1.373282 C 191.42344,91.846959 187.117,80.966543 186.6585,78.991392 l -0.42505,-1.831043 4.2607,-5.831094 4.26069,-5.831093 -4.86509,-4.926282 c -5.85717,-5.930845 -5.08933,-5.88337 -12.27092,-0.758694 l -5.84035,4.167589 -4.8522,-2.204089 c -2.66871,-1.212249 -6.3914,-2.705736 -8.27265,-3.31886 -4.2894,-1.397971 -4.52049,-1.776231 -6.19252,-10.136399 l -1.37329,-6.86641 -6.78574,-0.271981 -6.78574,-0.27198 -0.67939,1.099284 c -0.37367,0.604605 -0.96412,3.37809 -1.31211,6.163299 -0.34798,2.785208 -0.98192,5.982533 -1.40875,7.105168 l -0.77604,2.041153 -2.11237,0.622529 c -1.1618,0.342392 -4.90352,1.885306 -8.31492,3.428699 l -6.20255,2.806169 -6.45807,-4.412605 -6.45807,-4.412604 -5.101228,5.101229 -5.101231,5.101228 4.405187,6.173322 4.405192,6.173323 -1.16578,2.833874 c -0.64117,1.558631 -2.089892,5.267803 -3.21938,8.242604 -2.480752,6.533738 -3.65012,7.478622 -10.280552,8.30704 -2.828016,0.353337 -5.695237,0.854788 -6.371601,1.114332 l -1.229755,0.471902 v 7.143498 7.14351 l 6.63753,1.10577 c 3.650641,0.60817 7.286012,1.44506 8.078597,1.85976 l 1.441067,0.75398 1.178615,3.94497 c 0.648244,2.16974 1.956688,5.4735 2.907659,7.3417 2.42751,4.76889 2.24483,5.71868 -2.334177,12.13557 l -4.063212,5.69409 5.207614,5.12498 5.207625,5.12498 5.75641,-4.06528 c 6.62655,-4.67978 7.84266,-4.84875 13.72885,-1.90745 2.37506,1.18681 5.43936,2.42763 6.80955,2.75738 3.11056,0.74858 3.80128,2.12481 5.22958,10.41978 l 1.1429,6.63753 h 7.15788 7.15789 z m -16.54048,-28.0399 c -11.8541,-3.89337 -19.678,-12.73255 -21.97067,-24.82175 l -0.94096,-4.96167 0.92749,-5.01725 c 1.90761,-10.319191 7.56871,-18.0003 16.68863,-22.64349 l 4.83775,-2.463028 6.40865,-0.416262 6.40865,-0.416261 3.66209,0.991582 c 2.01414,0.54537 5.92118,2.342079 8.68231,3.992687 l 5.02021,3.001105 3.44186,5.035104 3.44185,5.035105 1.50849,6.168234 1.50849,6.168234 -1.04973,5.22697 c -2.1433,10.67226 -7.65066,18.16104 -16.80021,22.84452 l -4.83775,2.47635 -7.32417,0.27578 c -4.0283,0.15167 -8.35414,-0.0625 -9.61298,-0.47596 z m 15.68093,-7.91986 c 2.25794,-0.76936 5.59002,-2.62264 7.40465,-4.11841 l 3.29933,-2.71958 2.37141,-4.7588 2.37141,-4.75881 -0.009,-5.54225 -0.009,-5.54225 -2.16176,-4.64248 -2.16176,-4.642485 -3.50002,-2.885023 c -8.85982,-7.303003 -21.15087,-7.371029 -29.89249,-0.165443 l -3.29933,2.719581 -2.37141,4.758803 -2.37099,4.758804 v 5.591373 5.59137 l 2.37141,4.75881 2.37141,4.7588 3.31654,2.73377 c 6.31915,5.20878 14.5671,6.72883 22.26991,4.10422 z"
         id="path953" />
    </g>
  </g>
</svg>
