<?xml version="1.0" encoding="UTF-8" standalone="no"?>
<svg
   xmlns:dc="http://purl.org/dc/elements/1.1/"
   xmlns:cc="http://creativecommons.org/ns#"
   xmlns:rdf="http://www.w3.org/1999/02/22-rdf-syntax-ns#"
   xmlns:svg="http://www.w3.org/2000/svg"
   xmlns="http://www.w3.org/2000/svg"
   xmlns:sodipodi="http://sodipodi.sourceforge.net/DTD/sodipodi-0.dtd"
   xmlns:inkscape="http://www.inkscape.org/namespaces/inkscape"
   width="210mm"
   height="297mm"
   viewBox="0 0 210 297"
   version="1.1"
   id="svg8"
   inkscape:version="1.0.1 (0767f8302a, 2020-10-17)"
   sodipodi:docname="log.svg">
  <defs
     id="defs2" />
  <sodipodi:namedview
     id="base"
     pagecolor="#ffffff"
     bordercolor="#666666"
     borderopacity="1.0"
     inkscape:pageopacity="0.0"
     inkscape:pageshadow="2"
     inkscape:zoom="0.35"
     inkscape:cx="400"
     inkscape:cy="560"
     inkscape:document-units="mm"
     inkscape:current-layer="layer1"
     inkscape:document-rotation="0"
     showgrid="false"
     inkscape:window-width="1366"
     inkscape:window-height="694"
     inkscape:window-x="0"
     inkscape:window-y="0"
     inkscape:window-maximized="1" />
  <metadata
     id="metadata5">
    <rdf:RDF>
      <cc:Work
         rdf:about="">
        <dc:format>image/svg+xml</dc:format>
        <dc:type
           rdf:resource="http://purl.org/dc/dcmitype/StillImage" />
        <dc:title></dc:title>
      </cc:Work>
    </rdf:RDF>
  </metadata>
  <g
     inkscape:label="Layer 1"
     inkscape:groupmode="layer"
     id="layer1">
    <g
       id="g24">
      <path
         style="fill:#b9b9b9;fill-opacity:1;stroke-width:0.325296"
         d="m 94.920899,190.69245 c 0.01662,-0.35593 0.09869,-0.42832 0.209247,-0.1846 0.100048,0.22056 0.08775,0.48408 -0.02733,0.5856 -0.11509,0.10153 -0.196945,-0.0789 -0.181907,-0.401 z"
         id="path34" />
      <path
         style="fill:#a7a7a7;fill-opacity:1;stroke-width:0.325296"
         d="M 70.64853,114.25946 48.310408,94.476503 70.736124,114.18219 c 20.846419,18.31794 22.581127,19.86022 22.338123,19.86022 -0.04818,0 -10.139749,-8.90233 -22.425717,-19.78295 z"
         id="path32" />
      <path
         style="fill:#717171;fill-opacity:1;stroke-width:0.325296"
         d="m 166.24024,195.64377 c 0,-0.0634 0.27274,-0.30405 0.6061,-0.53468 0.54932,-0.38004 0.56157,-0.36923 0.13076,0.11536 -0.45245,0.50893 -0.73686,0.67078 -0.73686,0.41932 z M 37.746943,95.12497 c 0,-0.06345 0.272745,-0.304049 0.606101,-0.534675 0.549319,-0.380038 0.561569,-0.369231 0.130763,0.115354 -0.452452,0.508933 -0.736864,0.670781 -0.736864,0.419321 z"
         id="path30" />
      <path
         style="fill:#575757;fill-opacity:1;stroke-width:0.325296"
         d="m 116.97293,197.0577 c 8.23864,-0.0456 21.72004,-0.0456 29.95868,0 8.23863,0.0456 1.49793,0.083 -14.97934,0.083 -16.47728,0 -23.21798,-0.0373 -14.97934,-0.083 z M 70.649538,162.60931 c 12.285414,-10.83862 22.415046,-19.70658 22.51029,-19.70658 0.09524,0 -9.878533,8.86796 -22.163947,19.70658 -12.285413,10.83861 -22.415045,19.70657 -22.510289,19.70657 -0.09524,0 9.878533,-8.86796 22.163946,-19.70657 z M 57.4885,155.88768 c 10.761348,-9.49429 19.644013,-17.26234 19.739258,-17.26234 0.09524,0 -8.631567,7.76805 -19.392915,17.26234 -10.761347,9.49429 -19.644014,17.26235 -19.739258,17.26235 -0.09524,0 8.631568,-7.76806 19.392915,-17.26235 z"
         id="path28" />
      <path
         style="fill:#333333;fill-opacity:1;stroke-width:0.325296"
         d="m 99.01756,196.27007 c -1.003633,-0.46758 -1.882295,-1.21851 -2.56546,-2.1925 -0.886341,-1.26365 -1.038832,-1.78411 -1.037679,-3.54161 10e-4,-1.80045 0.134149,-2.22712 1.054407,-3.38339 0.579183,-0.72771 1.747485,-1.66684 2.596223,-2.08694 l 1.543169,-0.76382 h 31.51722 31.51722 l 1.63593,0.84833 c 1.78997,0.9282 3.18495,2.70749 3.56648,4.54904 0.34171,1.64929 -0.59941,4.18274 -1.9847,5.34275 -2.47561,2.073 -0.0739,1.9393 -34.83643,1.9393 H 100.54399 Z M 41.474996,183.84483 c -1.744111,-0.46327 -3.380482,-1.57084 -4.216676,-2.85404 -1.145761,-1.75824 -1.375121,-3.01597 -0.889073,-4.87535 0.40816,-1.56141 0.787523,-1.91916 20.720865,-19.54029 L 77.395204,138.6254 57.433456,120.98111 c -10.978961,-9.70436 -20.198167,-18.0615 -20.487124,-18.57143 -1.86521,-3.291571 -0.361609,-7.114156 3.467571,-8.815557 1.491181,-0.66257 4.44514,-0.617413 6.164789,0.09424 1.960483,0.811319 47.047137,40.680487 47.783331,42.253787 0.689437,1.47337 0.679255,3.97985 -0.0212,5.21897 -0.304003,0.53778 -11.018993,10.22714 -23.811089,21.53189 -21.624389,19.11012 -23.378343,20.58578 -24.966344,21.00507 -1.878832,0.49608 -2.666779,0.52436 -4.088391,0.14675 z"
         id="path26" />
    </g>
  </g>
</svg>
