<?xml version="1.0" encoding="UTF-8" standalone="no"?>
<svg
   xmlns:dc="http://purl.org/dc/elements/1.1/"
   xmlns:cc="http://creativecommons.org/ns#"
   xmlns:rdf="http://www.w3.org/1999/02/22-rdf-syntax-ns#"
   xmlns:svg="http://www.w3.org/2000/svg"
   xmlns="http://www.w3.org/2000/svg"
   xmlns:sodipodi="http://sodipodi.sourceforge.net/DTD/sodipodi-0.dtd"
   xmlns:inkscape="http://www.inkscape.org/namespaces/inkscape"
   width="210mm"
   height="297mm"
   viewBox="0 0 210 297"
   version="1.1"
   id="svg8"
   inkscape:version="1.0.1 (0767f8302a, 2020-10-17)"
   sodipodi:docname="question.svg">
  <defs
     id="defs2" />
  <sodipodi:namedview
     id="base"
     pagecolor="#ffffff"
     bordercolor="#666666"
     borderopacity="1.0"
     inkscape:pageopacity="0.0"
     inkscape:pageshadow="2"
     inkscape:zoom="0.35"
     inkscape:cx="400"
     inkscape:cy="560"
     inkscape:document-units="mm"
     inkscape:current-layer="layer1"
     inkscape:document-rotation="0"
     showgrid="false"
     inkscape:window-width="1366"
     inkscape:window-height="694"
     inkscape:window-x="0"
     inkscape:window-y="0"
     inkscape:window-maximized="1" />
  <metadata
     id="metadata5">
    <rdf:RDF>
      <cc:Work
         rdf:about="">
        <dc:format>image/svg+xml</dc:format>
        <dc:type
           rdf:resource="http://purl.org/dc/dcmitype/StillImage" />
        <dc:title />
      </cc:Work>
    </rdf:RDF>
  </metadata>
  <g
     inkscape:label="Layer 1"
     inkscape:groupmode="layer"
     id="layer1">
    <g
       id="g24"
       transform="matrix(0.73666399,0,0,0.75999898,25.308741,31.449966)">
      <path
         style="fill:#f3f3f3;stroke-width:0.264583"
         d="m 92.994131,272.32163 c -6.574214,-1.51366 -11.622228,-5.46475 -14.546829,-11.38582 -1.780643,-3.60504 -2.121921,-5.16035 -2.121921,-9.67026 0,-4.47505 0.418121,-6.20399 2.463456,-10.18646 0.95378,-1.85711 1.719947,-2.88212 3.4808,-4.65679 2.631913,-2.65255 4.947639,-4.09392 8.515067,-5.30001 2.109814,-0.71329 2.960872,-0.85389 5.781302,-0.9551 3.715994,-0.13334 5.904524,0.21285 8.886084,1.40566 3.00542,1.20236 4.89387,2.46404 7.28463,4.86687 1.94191,1.95171 2.48158,2.70116 3.63861,5.05298 1.93429,3.9317 2.28338,5.44605 2.28338,9.90514 0,4.36488 -0.35504,5.96081 -2.12192,9.53797 -2.61913,5.30263 -6.66196,8.81522 -12.37614,10.75293 -2.16211,0.73318 -2.83592,0.83549 -6.007144,0.91211 -2.387172,0.0577 -4.098409,-0.0349 -5.159375,-0.27922 z m -4.520499,-65.01345 c -0.350306,-0.56681 -4.677021,-57.67907 -4.3913,-57.96479 0.147179,-0.14718 6.320202,-1.50026 13.717825,-3.00685 13.829733,-2.81655 16.439393,-3.51735 20.312483,-5.45479 10.41268,-5.20873 16.141,-16.36505 17.9056,-34.87245 0.48138,-5.04883 0.41227,-18.092384 -0.12155,-22.938936 -1.33497,-12.120139 -4.323,-19.672045 -9.87779,-24.96495 -2.3945,-2.281618 -4.35884,-3.641248 -7.07143,-4.89454 -10.12839,-4.679606 -28.026942,-5.364723 -41.732129,-1.597419 -5.071031,1.393933 -12.064701,4.273939 -13.638739,5.616456 -0.492397,0.41997 -0.99713,2.470769 -3.409789,13.854395 -1.557512,7.348801 -2.932451,13.631589 -3.055418,13.961749 l -0.223579,0.600292 -6.023926,-0.07113 -6.023926,-0.07113 -0.06765,-22.125208 c -0.05351,-17.501764 0.0018,-22.180546 0.264583,-22.390036 0.477558,-0.380671 11.580539,-3.049466 17.794734,-4.277276 12.681836,-2.505695 18.498754,-3.052658 32.54375,-3.060079 11.060239,-0.0058 13.830829,0.151172 20.902079,1.184571 16.98835,2.482692 29.44361,8.075432 38.39186,17.238947 8.39768,8.599704 12.85406,19.082691 14.15467,33.29679 0.37833,4.134768 0.1507,14.865304 -0.40372,19.031074 -1.51166,11.35813 -4.4981,20.35068 -9.27644,27.93246 -5.57395,8.84421 -13.86446,16.34263 -23.54495,21.29547 -6.2962,3.22132 -12.35792,5.20778 -23.42246,7.67567 -3.41974,0.76275 -6.33569,1.49655 -6.47988,1.63065 -0.15118,0.14059 -0.7231,9.52116 -1.35087,22.15688 -0.59879,12.05218 -1.17244,22.04856 -1.2748,22.21417 -0.26306,0.42564 -14.334176,0.42564 -14.597238,0 z"
         id="path62" />
      <path
         style="fill:#ebebeb;stroke-width:0.264583"
         d="m 93.96354,272.40018 c -8.132432,-1.35223 -14.863265,-7.57435 -17.13824,-15.84297 -0.725826,-2.63808 -0.668067,-7.95017 0.116319,-10.69757 1.177618,-4.12475 3.823819,-8.32321 6.777575,-10.75329 7.342947,-6.04111 17.565946,-6.61282 25.581556,-1.43061 4.16232,2.69101 7.2683,7.02814 8.75191,12.22102 0.77399,2.70909 0.82707,8.04016 0.10613,10.66045 -1.86066,6.76275 -6.81071,12.35275 -13.02838,14.71271 -3.38316,1.2841 -7.646493,1.71561 -11.16687,1.13026 z m -5.301213,-65.14701 c -0.179842,-0.21669 -1.120325,-11.01562 -2.402194,-27.58281 -1.15865,-14.97467 -2.164175,-27.77925 -2.234499,-28.4546 -0.07634,-0.73309 -0.0011,-1.39989 0.186984,-1.65464 0.22656,-0.30707 3.950086,-1.16844 13.278876,-3.07186 15.751486,-3.21387 16.525726,-3.41916 20.568916,-5.45374 5.43037,-2.73263 9.66777,-7.09085 12.57497,-12.93351 4.1592,-8.35884 6.15916,-20.81208 5.80008,-36.115622 -0.40903,-17.432268 -3.62352,-27.852456 -10.57934,-34.294361 -6.62055,-6.131407 -17.32923,-8.954455 -32.200531,-8.488791 -7.270925,0.227674 -12.088437,0.963207 -17.991667,2.746951 -4.436107,1.340435 -10.71635,3.987978 -12.230433,5.155952 -0.340117,0.262366 -1.20346,3.856428 -3.38691,14.099581 -1.611741,7.561101 -3.058015,13.901179 -3.213944,14.089062 -0.391933,0.472252 -11.336972,0.494596 -11.807463,0.0241 -0.241851,-0.241852 -0.316534,-5.489947 -0.313448,-22.026561 0.0022,-11.939984 0.100139,-21.860456 0.217578,-22.045495 0.496807,-0.78277 19.374663,-4.975472 27.55962,-6.120889 14.472918,-2.025364 30.341378,-2.122872 43.259378,-0.26582 21.3288,3.066164 35.9619,11.08097 44.64023,24.450228 4.13649,6.37241 6.77456,13.951976 8.05774,23.15104 0.64797,4.645274 0.64246,15.87982 -0.0103,21.034375 -1.95154,15.41009 -6.35224,26.21617 -14.56834,35.77309 -5.52736,6.42939 -13.17125,12.06446 -21.30366,15.70504 -5.65463,2.53137 -10.51732,4.01412 -20.88079,6.36706 -3.39999,0.77193 -6.22067,1.52662 -6.26816,1.67708 -0.0475,0.15046 -0.57202,10.08685 -1.1656,22.08086 -0.69035,13.94924 -1.18438,21.93397 -1.37101,22.15885 -0.42913,0.51707 -13.786705,0.51279 -14.216065,-0.005 z"
         id="path60" />
      <path
         style="fill:#e3e3e3;stroke-width:0.264583"
         d="m 94.729951,272.42362 c -8.854887,-1.22083 -15.816842,-7.56788 -17.914057,-16.33182 -0.520538,-2.17525 -0.57785,-6.74094 -0.112061,-8.92729 1.720114,-8.074 7.515479,-14.16783 15.496548,-16.29466 3.223487,-0.859 7.940849,-0.80479 11.061559,0.12714 2.74439,0.81954 4.49079,1.65864 6.66552,3.20258 4.16878,2.9596 7.22944,7.70936 8.3544,12.96494 0.51499,2.40592 0.39517,7.01483 -0.24539,9.43901 -1.49727,5.66636 -5.60367,10.92404 -10.57048,13.53403 -3.65612,1.92123 -8.750221,2.83561 -12.736039,2.28607 z m -5.950254,-65.2301 c -0.228677,-0.22867 -0.415775,-0.6191 -0.415775,-0.86762 0,-0.24853 -0.952055,-12.65229 -2.115679,-27.56392 -1.163625,-14.91163 -2.116125,-27.6218 -2.116667,-28.24484 -5.29e-4,-0.6651 0.135559,-1.18351 0.329742,-1.25566 0.181901,-0.0676 6.224323,-1.32004 13.427604,-2.78323 13.173778,-2.67597 16.869658,-3.64771 20.153708,-5.29891 6.59847,-3.31768 11.45053,-9.13083 14.46842,-17.33429 1.26259,-3.43206 2.5967,-9.1792 3.25281,-14.01252 0.54821,-4.03853 0.6088,-5.51125 0.60894,-14.803434 1.4e-4,-8.430852 -0.0852,-10.923844 -0.46637,-13.626041 -1.25296,-8.882282 -3.07054,-14.512787 -6.2348,-19.314159 -1.30766,-1.984221 -4.325,-5.118629 -6.24926,-6.491726 -4.68473,-3.342889 -11.39884,-5.456381 -19.79325,-6.230588 -4.426703,-0.408268 -14.952428,-0.174588 -18.704781,0.415263 -6.482826,1.019067 -12.652886,2.905517 -18.186979,5.560531 -2.490539,1.194853 -3.577553,1.857989 -3.761994,2.295017 -0.213855,0.50673 -5.832277,26.532315 -5.832277,27.016211 0,0.08318 -0.187097,0.338336 -0.415774,0.56701 -0.61998,0.61998 -10.983889,0.61998 -11.603869,0 -0.371152,-0.371152 -0.415774,-2.722557 -0.415774,-21.909846 0,-16.786155 0.07244,-21.589644 0.330729,-21.930409 0.774697,-1.022072 19.162213,-5.097659 28.773438,-6.377621 16.306395,-2.171583 35.030321,-1.76371 48.551041,1.057613 21.47959,4.482073 35.62137,15.086059 42.3379,31.74641 6.54801,16.242336 5.37991,42.306139 -2.63362,58.763949 -2.96452,6.08835 -5.83918,10.22476 -10.32536,14.85729 -7.82229,8.07749 -17.63712,13.82157 -29.38495,17.19739 -2.03398,0.58447 -6.6747,1.73599 -10.31272,2.55892 -3.63802,0.82294 -6.64145,1.52169 -6.67428,1.55278 -0.0687,0.0651 -2.18926,41.89742 -2.18926,43.18745 0,1.65711 -0.12157,1.68476 -7.408334,1.68476 -5.626119,0 -6.636885,-0.0601 -6.992559,-0.41578 z"
         id="path58" />
      <path
         style="fill:#d7d7d7;stroke-width:0.264583"
         d="m 92.248392,271.88555 c -4.813073,-1.18277 -9.267447,-4.29785 -12.090866,-8.45552 -2.575935,-3.79324 -3.699854,-7.4483 -3.699854,-12.03219 0,-3.66635 0.598747,-6.22418 2.229644,-9.525 2.188377,-4.42912 4.989801,-7.18584 9.544315,-9.39203 3.263164,-1.58066 5.610386,-2.11735 9.260416,-2.11735 3.650033,0 5.997253,0.53669 9.260413,2.11735 4.55452,2.20619 7.35594,4.96291 9.54432,9.39203 0.6471,1.30969 1.41349,3.32303 1.7031,4.47409 0.72365,2.87627 0.71989,7.25295 -0.009,10.10181 -1.96975,7.70219 -7.90765,13.6588 -15.40848,15.45707 -2.905937,0.69667 -7.453164,0.68776 -10.334331,-0.0203 z M 88.640393,206.7494 c -0.132744,-0.32742 -1.216054,-13.25691 -2.407356,-28.73221 -1.830954,-23.7845 -2.10993,-28.19019 -1.803498,-28.48143 0.199379,-0.1895 6.314964,-1.55317 13.590188,-3.03037 7.275223,-1.47721 14.264543,-3.0332 15.531813,-3.45778 2.8395,-0.95132 6.17958,-2.60281 8.28217,-4.09507 2.07704,-1.47414 5.24215,-4.81059 6.82455,-7.194 3.68429,-5.54926 6.25007,-13.72287 7.33546,-23.36799 0.87466,-7.77245 0.80797,-20.370674 -0.14663,-27.699346 -1.9483,-14.957533 -7.55633,-23.839409 -17.75801,-28.12477 -9.55433,-4.013433 -26.318756,-4.738502 -38.943574,-1.684327 -6.102197,1.476232 -15.939188,5.483561 -16.279712,6.631918 -0.07721,0.260374 -1.416016,6.486062 -2.975126,13.834864 -1.55911,7.348802 -2.950665,13.512561 -3.092342,13.697245 -0.197183,0.257041 -1.598557,0.319088 -5.975686,0.264584 l -5.718093,-0.0712 -0.06766,-22.004794 -0.06766,-22.004794 1.258286,-0.414219 c 5.440718,-1.79104 22.273418,-5.170401 30.362453,-6.095616 9.510078,-1.087753 26.441694,-1.233796 34.792704,-0.300102 18.67405,2.087869 32.16923,7.407977 41.81938,16.486143 8.03251,7.556412 12.94851,17.501181 14.94474,30.232341 0.67914,4.331266 0.8233,15.439696 0.27126,20.902083 -0.8713,8.6214 -3.1852,17.76173 -6.03948,23.85698 -7.27891,15.54401 -20.94783,26.89047 -39.00615,32.37871 -1.71941,0.52256 -6.44751,1.71344 -10.50688,2.64639 -4.05937,0.93295 -7.43766,1.75326 -7.50731,1.82291 -0.0696,0.0696 -0.61997,9.98412 -1.22294,22.03217 -0.60298,12.04804 -1.19055,22.05437 -1.30571,22.23627 -0.15873,0.25071 -1.8713,0.33073 -7.078611,0.33073 h -6.869223 z"
         id="path56" />
      <path
         style="fill:#c7c7c7;stroke-width:0.264583"
         d="m 93.126422,272.02347 c -6.321348,-1.34779 -11.515756,-5.42187 -14.490514,-11.36522 -2.630305,-5.25515 -2.881874,-11.73214 -0.670254,-17.25667 1.474846,-3.6841 4.752274,-7.59993 8.208857,-9.80783 6.873116,-4.39024 16.056539,-4.30666 22.916719,0.20856 6.26461,4.12323 9.73133,11.02497 9.3629,18.64016 -0.46474,9.60586 -7.30958,17.65067 -16.65145,19.57061 -2.46138,0.50587 -6.330647,0.5105 -8.676258,0.0104 z m -4.384683,-64.97418 c -0.336214,-0.544 -4.636182,-57.19996 -4.362061,-57.47408 0.14138,-0.14138 6.007,-1.42827 13.034711,-2.85976 7.027711,-1.43149 13.849221,-2.90793 15.158911,-3.28097 8.18139,-2.33031 14.16605,-7.29404 18.09248,-15.00607 4.26706,-8.38106 6.48318,-21.96393 6.01047,-36.838897 C 136.29763,79.675112 134.7364,71.471208 131.69148,65.395764 126.99087,56.016791 119.40492,51.282927 106.2233,49.502868 102.00332,48.932998 91.170009,48.84699 87.173297,49.351625 79.006499,50.382788 70.257715,53.079157 64.286839,56.405212 l -1.455208,0.810617 -2.951258,13.841015 c -1.62319,7.61256 -3.060324,13.950085 -3.193629,14.08339 -0.136277,0.136276 -2.724277,0.211052 -5.912284,0.170825 L 45.104547,85.239509 45.036877,63.3789 c -0.05411,-17.480028 5.3e-5,-21.916813 0.27028,-22.141081 0.44888,-0.372539 9.880491,-2.675844 16.333846,-3.98891 11.492616,-2.338406 19.061768,-3.175167 30.691666,-3.392928 20.536711,-0.384534 35.423721,2.214075 48.021881,8.382486 8.53276,4.177877 14.61794,9.401789 19.58922,16.816649 4.33497,6.465771 6.95059,13.897887 8.37717,23.803143 0.46451,3.225289 0.45676,16.256976 -0.012,20.108341 -1.50864,12.39601 -4.67863,21.9196 -10.03981,30.16249 -7.76397,11.93722 -20.52936,20.93598 -36.027,25.39667 -1.71752,0.49435 -6.08392,1.56544 -9.70311,2.38019 -3.61919,0.81475 -6.75894,1.57868 -6.97722,1.69763 -0.33372,0.18185 -0.57025,3.69298 -1.48641,22.06452 -0.59924,12.01655 -1.16105,22.03464 -1.24846,22.26244 -0.13859,0.36113 -1.03897,0.41418 -7.030799,0.41418 -4.774041,0 -6.927593,-0.0902 -7.054435,-0.29543 z"
         id="path54" />
      <path
         style="fill:#b7b7b7;stroke-width:0.264583"
         d="m 94.140004,272.17965 c -3.714126,-0.68133 -7.248035,-2.30251 -10.032947,-4.60262 -5.011431,-4.13902 -7.988313,-10.96615 -7.573497,-17.36892 0.592918,-9.15178 6.598092,-16.5753 15.455371,-19.10574 2.940426,-0.84005 8.065809,-0.84005 11.006229,0 4.72131,1.34883 8.79325,4.15434 11.46948,7.90231 3.20405,4.48716 4.67568,10.54896 3.78378,15.58571 -1.46741,8.28673 -7.25358,14.82881 -15.07507,17.04449 -2.21351,0.62704 -7.008529,0.91622 -9.033346,0.54477 z m -5.220999,-65.20058 c -0.19022,-0.2292 -1.085776,-10.47276 -2.399898,-27.45052 -1.153041,-14.89668 -2.15379,-27.62716 -2.223892,-28.28996 -0.0701,-0.6628 -0.03947,-1.34744 0.06806,-1.52143 0.107532,-0.17399 5.7844,-1.4535 12.615267,-2.84336 14.426478,-2.93532 15.883938,-3.28462 18.902048,-4.53007 8.4931,-3.50475 13.98221,-9.84446 17.32819,-20.01337 2.23228,-6.78425 3.26236,-14.02231 3.48998,-24.523139 0.42984,-19.829687 -2.64381,-32.128474 -9.8822,-39.542298 -4.77088,-4.886509 -11.50101,-7.713328 -21.25472,-8.927496 -3.68602,-0.458846 -15.71647,-0.451048 -19.05,0.01236 -4.286052,0.595805 -8.701852,1.617358 -12.744812,2.94839 -3.934688,1.295384 -10.133476,4.071445 -10.735239,4.807659 -0.180957,0.221387 -1.632461,6.502325 -3.225567,13.95764 -1.593107,7.455315 -3.037208,13.724596 -3.209116,13.931733 -0.417914,0.503555 -10.808586,0.557874 -11.307349,0.05911 -0.241767,-0.241768 -0.3175,-5.477745 -0.3175,-21.951107 0,-20.669051 0.02152,-21.645125 0.482725,-21.891952 0.265499,-0.142092 2.676514,-0.795742 5.357812,-1.452557 11.881786,-2.910594 20.67062,-4.472567 30.142796,-5.35706 6.940407,-0.648082 22.42417,-0.648871 28.83958,-0.0015 16.36697,1.651648 28.61105,5.618139 38.23726,12.387024 3.65991,2.573549 9.1333,8.183782 11.57236,11.861696 4.67541,7.050146 7.4574,14.958007 8.70305,24.738541 0.50778,3.987003 0.43323,15.273839 -0.13195,19.976046 -1.96628,16.35913 -7.11724,28.15286 -16.56729,37.93273 -5.84797,6.05209 -13.70227,11.3 -21.79515,14.5626 -4.79331,1.9324 -9.00719,3.12688 -19.27612,5.46405 -2.72052,0.61918 -5.05622,1.19638 -5.19045,1.28268 -0.13423,0.0863 -0.73824,10.02948 -1.34225,22.09597 -0.70273,14.03873 -1.20341,22.06585 -1.39039,22.29114 -0.43581,0.52511 -13.258711,0.5124 -13.695234,-0.0136 z"
         id="path52" />
      <path
         style="fill:#a7a7a7;stroke-width:0.264583"
         d="m 94.597728,272.1453 c -6.663703,-0.91047 -12.373626,-4.97545 -15.609507,-11.11266 -1.735021,-3.29065 -2.32061,-5.72193 -2.32061,-9.6348 0,-3.79311 0.57994,-6.32204 2.184284,-9.525 2.040472,-4.07365 5.0415,-7.07468 9.115152,-9.11515 3.202959,-1.60435 5.731897,-2.18429 9.525,-2.18429 3.793103,0 6.322043,0.57994 9.525003,2.18429 5.3497,2.67964 9.16868,7.42811 10.73557,13.34848 0.71665,2.70779 0.78654,7.36891 0.15004,10.00629 -1.49917,6.21188 -6.15017,11.89868 -11.76536,14.3856 -3.37459,1.49457 -7.914175,2.14259 -11.539572,1.64724 z m -5.645322,-65.13131 c -0.39229,-0.48042 -4.742035,-57.00489 -4.412104,-57.33482 0.144219,-0.14422 6.153451,-1.46222 13.353854,-2.92891 16.012264,-3.2616 18.742204,-4.10701 23.577284,-7.30141 3.39122,-2.24048 7.2939,-6.85066 9.47769,-11.19587 2.89385,-5.75804 4.85778,-14.12839 5.59151,-23.83118 0.40995,-5.421218 0.16707,-19.129534 -0.41254,-23.283328 -1.55175,-11.120776 -4.42687,-18.121121 -9.50994,-23.154761 -4.57037,-4.525922 -10.41404,-7.075939 -19.51601,-8.51626 -4.31208,-0.682352 -17.538527,-0.681871 -21.913228,7.94e-4 -6.787009,1.059106 -13.62344,3.165565 -19.254398,5.932715 -1.640388,0.806114 -3.042288,1.562364 -3.115334,1.680559 -0.07305,0.118192 -1.448898,6.383028 -3.057446,13.921861 -2.062093,9.664477 -3.050489,13.804502 -3.351379,14.037693 -0.307528,0.238334 -1.848718,0.330729 -5.516655,0.330729 -4.27441,0 -5.156521,-0.06661 -5.50568,-0.415774 -0.371125,-0.37112 -0.415774,-2.714572 -0.415774,-21.822023 V 41.727757 l 0.595312,-0.373377 c 1.106198,-0.693801 11.938963,-3.248078 20.36935,-4.802927 20.394798,-3.761491 43.094072,-3.55735 59.691162,0.53682 22.55402,5.563626 36.53427,18.586925 41.1805,38.361657 3.12318,13.292545 2.27023,30.70485 -2.15765,44.04693 -4.80235,14.47041 -14.80461,26.12358 -28.72286,33.46366 -6.58337,3.47189 -11.99886,5.24739 -25.07456,8.22086 -2.98318,0.67839 -5.5108,1.31514 -5.61693,1.415 -0.10614,0.0999 -0.68372,10.06027 -1.28353,22.13422 -0.93831,18.88804 -1.14928,21.99883 -1.51124,22.28339 -0.31021,0.24387 -2.10132,0.33073 -6.820018,0.33073 -4.799041,0 -6.466861,-0.0827 -6.669386,-0.33073 z"
         id="path50" />
      <path
         style="fill:#979797;stroke-width:0.264583"
         d="m 92.371008,271.65083 c -1.070322,-0.26282 -3.094384,-1.04758 -4.497917,-1.74392 -2.161093,-1.07219 -2.916531,-1.63418 -4.933127,-3.66986 -2.659491,-2.68467 -4.158776,-5.07602 -5.322422,-8.48921 -1.027689,-3.01442 -1.205619,-8.03601 -0.39929,-11.26906 1.536829,-6.16207 5.417888,-10.99893 11.013379,-13.72568 3.256145,-1.58675 5.601911,-2.12505 9.260416,-2.12505 3.658503,0 6.004273,0.5383 9.260413,2.12505 5.59549,2.72675 9.47655,7.56361 11.01338,13.72568 0.80633,3.23305 0.6284,8.25464 -0.39929,11.26906 -1.16482,3.41663 -2.66247,5.80394 -5.33297,8.50096 -2.1137,2.13468 -2.71359,2.57063 -5.15937,3.74933 -1.52217,0.73358 -3.62452,1.52182 -4.67189,1.75164 -2.589328,0.56817 -7.307896,0.52068 -9.831312,-0.0989 z m -3.594897,-65.16601 c -0.24393,-1.14288 -4.422621,-56.32901 -4.291171,-56.67157 0.07291,-0.19001 0.588558,-0.42902 1.145879,-0.53115 6.732585,-1.23373 26.033931,-5.34996 27.920461,-5.95436 3.18014,-1.01884 6.72696,-2.83682 9.1445,-4.68715 7.83747,-5.99862 12.43017,-17.00166 13.8413,-33.16045 0.3982,-4.55978 0.40089,-16.603 0.005,-20.902085 -1.8957,-20.56861 -8.93847,-30.409731 -24.49764,-34.231425 -8.48882,-2.085052 -22.792644,-2.092428 -31.882291,-0.01643 -6.892017,1.57407 -16.858493,5.623163 -17.477952,7.100787 -0.128304,0.306049 -1.434967,6.211922 -2.903693,13.124161 -1.468729,6.912239 -2.786571,13.014192 -2.928541,13.559895 l -0.258127,0.992179 H 50.915183 45.236839 V 63.272549 41.437877 l 0.67938,-0.2583 c 1.153134,-0.438422 10.055954,-2.562502 14.931037,-3.562324 14.416672,-2.956691 22.885548,-3.736525 37.936487,-3.493285 12.335037,0.199348 18.990707,0.992983 28.077057,3.347964 15.05126,3.900958 26.20483,11.271675 33.13176,21.894783 1.88263,2.887194 4.31576,8.004558 5.48465,11.535319 1.20131,3.62871 2.41177,9.659172 2.8124,14.011296 0.39815,4.325117 0.16928,15.64058 -0.39994,19.77306 -2.67629,19.42971 -10.02106,32.73437 -23.73835,43.00077 -4.66862,3.49413 -10.13246,6.45834 -16.00823,8.6847 -4.14319,1.56988 -7.38168,2.4729 -15.81776,4.41063 -3.77441,0.86696 -6.97389,1.68763 -7.10997,1.8237 -0.13608,0.13608 -0.75548,10.16862 -1.37646,22.29453 -0.62098,12.12592 -1.1422,22.07689 -1.15827,22.11327 -0.0161,0.0364 -3.122565,0.0661 -6.903334,0.0661 H 88.90317 Z"
         id="path48" />
      <path
         style="fill:#878787;stroke-width:0.264583"
         d="m 92.994131,271.74616 c -7.406648,-1.64628 -13.088872,-6.98129 -15.472977,-14.52749 -0.829161,-2.62447 -1.013084,-6.98468 -0.418425,-9.91945 1.999176,-9.86633 10.321684,-16.67117 20.389318,-16.67117 10.043063,0 18.404963,6.83093 20.387823,16.65505 0.59408,2.9434 0.41294,7.30333 -0.41278,9.93557 -2.20047,7.01466 -7.70927,12.47908 -14.41879,14.30264 -2.29274,0.62313 -7.716562,0.74443 -10.054169,0.22485 z m -4.217848,-65.79051 c -0.08208,-0.61846 -1.101283,-13.44331 -2.264907,-28.49966 -1.688007,-21.84146 -2.048878,-27.43844 -1.785213,-27.68811 0.181756,-0.17211 6.045468,-1.46899 13.030468,-2.88195 14.196709,-2.87179 16.146569,-3.37046 19.640959,-5.02311 9.19062,-4.34663 14.76425,-12.4202 17.62807,-25.53477 1.58998,-7.28114 2.29537,-17.98046 1.80256,-27.341127 -0.81676,-15.513904 -3.57473,-24.131636 -9.82082,-30.686765 -5.59432,-5.871114 -13.27271,-8.662236 -26.06706,-9.475472 -12.717163,-0.808334 -24.701833,1.39855 -34.984848,6.44218 -1.483336,0.727549 -2.865718,1.518248 -3.071961,1.757109 -0.206242,0.238858 -1.649701,6.446945 -3.207686,13.795747 -1.557986,7.348802 -2.893042,13.572159 -2.966792,13.829683 -0.12369,0.431901 -0.568798,0.46269 -5.737008,0.396875 L 45.369131,84.97493 V 63.146806 41.318682 l 4.894791,-1.235427 c 18.230866,-4.6014 31.678081,-6.258863 48.41875,-5.96795 18.143918,0.315299 31.360578,3.047432 42.597918,8.805794 5.41209,2.773325 9.24123,5.644793 13.6174,10.211681 7.01299,7.318623 11.19417,16.537568 13.00176,28.66715 0.56293,3.777472 0.7749,13.54661 0.39402,18.159295 -1.47665,17.883275 -6.77575,30.873065 -16.80898,41.204195 -7.63183,7.85842 -16.95685,13.40134 -28.32816,16.83863 -1.74625,0.52785 -6.4963,1.72305 -10.55568,2.656 -4.05937,0.93296 -7.4474,1.76301 -7.52896,1.84457 -0.0816,0.0816 -0.65293,10.11511 -1.26971,22.29676 -0.61678,12.18165 -1.12804,22.17823 -1.13614,22.21461 -0.008,0.0364 -3.103048,0.0661 -6.877673,0.0661 h -6.862953 z"
         id="path46" />
      <path
         style="fill:#777777;stroke-width:0.264583"
         d="m 93.523297,271.78861 c -7.870407,-1.55382 -13.985687,-7.31922 -16.171939,-15.2467 -0.723138,-2.62215 -0.663273,-7.94073 0.120272,-10.68535 1.677831,-5.87714 5.37397,-10.34135 10.760001,-12.99597 3.413347,-1.68234 5.161915,-2.07615 9.260416,-2.0856 4.085663,-0.009 5.787323,0.37381 9.260413,2.0856 5.38603,2.65462 9.08217,7.11883 10.76,12.99597 0.78355,2.74462 0.84341,8.0632 0.12028,10.68535 -2.03331,7.3729 -7.65894,13.04693 -14.84903,14.97676 -2.18926,0.5876 -6.948648,0.72634 -9.260413,0.26994 z m -4.503653,-64.98234 c -0.09309,-0.15062 -1.163182,-12.97961 -2.377982,-28.50885 -1.840061,-23.52219 -2.149073,-28.28151 -1.851324,-28.51369 0.19657,-0.15328 6.111433,-1.44462 13.144138,-2.86963 13.617504,-2.75928 16.448874,-3.50966 20.153774,-5.34121 3.13423,-1.54943 5.19864,-3.06431 7.58544,-5.56625 6.64889,-6.96966 10.04395,-17.08782 11.13067,-33.17234 0.3373,-4.992363 0.19074,-15.198024 -0.28306,-19.711453 -0.71661,-6.826382 -2.50273,-13.89979 -4.51858,-17.894532 -4.43657,-8.791787 -12.04028,-13.880446 -23.42008,-15.673498 -11.172674,-1.760421 -23.02737,-1.065303 -33.120809,1.942086 -5.037921,1.501071 -12.52006,4.815673 -12.857901,5.696072 -0.07721,0.201199 -1.402752,6.296326 -2.945651,13.544721 -1.542899,7.248395 -2.917148,13.449212 -3.053884,13.779592 -0.24859,0.600636 -0.249103,0.600684 -5.741938,0.529167 l -5.493326,-0.07152 -0.06771,-21.534548 c -0.04704,-14.961771 0.01845,-21.638357 0.214568,-21.874669 0.617209,-0.743691 18.899332,-4.774637 26.89722,-5.930451 7.670107,-1.108445 12.730306,-1.428697 22.82988,-1.444867 9.945381,-0.01592 13.780831,0.206107 20.769791,1.202346 26.11051,3.721916 42.91674,15.832716 49.33101,35.548618 2.28835,7.033813 3.05227,12.568721 3.03243,21.97107 -0.0166,7.876466 -0.35677,11.529826 -1.68768,18.126636 -3.3506,16.60769 -11.43309,29.04468 -24.74659,38.07897 -7.94344,5.39026 -15.51664,8.3668 -29.07394,11.42711 -4.05796,0.91601 -7.54054,1.8279 -7.73907,2.02642 -0.19852,0.19853 -0.36232,0.85847 -0.364,1.46654 -0.007,2.60755 -2.11043,42.55824 -2.25264,42.78834 -0.22091,0.35745 -13.271432,0.33794 -13.492755,-0.0202 z"
         id="path44" />
      <path
         style="fill:#676767;stroke-width:0.264583"
         d="M 94.317047,271.87219 C 84.99135,270.5157 77.674748,262.58037 76.84829,252.92618 c -0.564422,-6.59323 2.497936,-13.67802 7.658613,-17.71826 2.16635,-1.69601 5.381665,-3.28797 7.958061,-3.94018 2.553227,-0.64633 7.554576,-0.64998 10.054166,-0.007 8.2831,2.12962 14.30966,8.89473 15.48466,17.38231 0.82917,5.98949 -1.20476,12.33587 -5.3933,16.82848 -4.79419,5.14223 -11.29914,7.41835 -18.293443,6.40098 z M 89.016231,206.7494 c -0.232907,-0.61705 -4.50211,-56.58362 -4.33669,-56.85128 0.09039,-0.14625 5.986741,-1.44698 13.103008,-2.89052 7.116261,-1.44353 14.106821,-2.99047 15.534561,-3.43764 16.82888,-5.27079 24.23806,-21.34635 23.65279,-51.318989 C 136.77692,82.3679 135.92486,76.01884 134.0023,70.138193 128.89522,54.516796 116.81749,48.068634 93.799393,48.674321 c -9.047938,0.23808 -15.625448,1.493699 -23.115426,4.41263 -2.710424,1.056286 -7.84845,3.540043 -8.072271,3.902197 -0.07073,0.114435 -1.455441,6.398519 -3.077149,13.964631 -1.621708,7.566112 -3.040058,13.848396 -3.151886,13.960633 -0.111832,0.112239 -2.635626,0.17177 -5.60843,0.132291 l -5.4051,-0.07177 -0.06769,-21.596013 c -0.05352,-17.077925 0.0018,-21.65165 0.264584,-21.861951 0.955326,-0.764622 19.603251,-4.783864 27.187477,-5.859796 11.184048,-1.586619 24.586872,-1.990689 35.586458,-1.072865 35.96574,3.001041 55.7667,18.931885 59.50799,47.877083 1.52408,11.791272 0.19516,26.021449 -3.46512,37.105039 -5.48037,16.59492 -17.9824,29.43546 -35.32542,36.28192 -4.24024,1.6739 -8.92011,3.00203 -16.88099,4.79076 -3.71078,0.83377 -6.88658,1.6526 -7.05734,1.81963 -0.21403,0.20936 -0.6513,7.12129 -1.40783,22.25359 -0.60355,12.07244 -1.15547,22.04393 -1.2265,22.15885 -0.071,0.11492 -3.102418,0.20895 -6.736417,0.20895 -5.042852,0 -6.636829,-0.0783 -6.732106,-0.33073 z"
         id="path42" />
      <path
         style="fill:#575757;stroke-width:0.264583"
         d="m 94.928285,271.90239 c -7.400311,-0.90776 -13.722337,-5.75443 -16.510648,-12.6576 -1.124686,-2.78444 -1.504111,-4.76614 -1.502407,-7.84695 0.0021,-3.66843 0.505491,-5.77499 2.242322,-9.38216 1.174536,-2.43935 1.619046,-3.0527 3.748117,-5.17176 1.943695,-1.93456 2.892393,-2.64907 4.856681,-3.6578 3.449592,-1.77148 5.808406,-2.33838 9.729697,-2.33838 3.921293,0 6.280103,0.5669 9.729693,2.33838 3.29668,1.69296 6.71184,5.04387 8.31395,8.15755 3.5804,6.95846 3.45698,14.09061 -0.35733,20.64914 -4.0159,6.90517 -12.17861,10.89967 -20.250075,9.90958 z M 89.21518,206.7494 c -0.273154,-0.33228 -4.767964,-56.69492 -4.539528,-56.92335 0.0671,-0.0671 6.07387,-1.33477 13.348369,-2.81703 7.274499,-1.48225 14.277359,-3.03822 15.561909,-3.45771 3.15706,-1.03097 7.25883,-3.17806 9.55084,-4.99943 7.14153,-5.67512 11.4676,-15.31941 13.30208,-29.65491 0.5899,-4.60984 0.66948,-22.072447 0.12106,-26.567873 -1.39205,-11.410712 -4.12579,-18.531654 -9.1748,-23.898775 -4.84085,-5.145857 -11.18191,-7.965132 -21.02952,-9.349863 -3.96647,-0.557747 -17.574182,-0.473867 -21.377559,0.131778 -4.074919,0.648883 -8.557152,1.773034 -12.356817,3.099109 -3.442957,1.201584 -8.631857,3.568549 -9.597504,4.377992 -0.523724,0.439004 -0.979416,2.267934 -3.517474,14.117425 -1.60369,7.487192 -3.044155,13.767738 -3.201037,13.95677 -0.392388,0.472797 -10.280165,0.496885 -10.75086,0.02619 -0.380721,-0.380722 -0.458781,-42.441477 -0.07988,-43.039602 0.45635,-0.720378 17.215878,-4.506857 25.823834,-5.834377 15.032964,-2.318386 33.510817,-2.316108 47.360417,0.0058 24.34121,4.080908 40.04649,15.75864 46.40046,34.501267 2.30674,6.8043 3.27142,13.321257 3.2703,22.092707 -0.003,21.507162 -5.83587,37.598412 -17.95624,49.534122 -9.55602,9.41042 -19.28255,14.19996 -37.1863,18.31127 -4.17364,0.95842 -7.75946,1.80819 -7.96848,1.8884 -0.47452,0.1821 -0.45795,-0.0621 -1.66911,24.59017 -0.54614,11.11609 -1.07646,19.72212 -1.2269,19.90989 -0.19859,0.24787 -1.83973,0.33073 -6.550188,0.33073 -4.706779,0 -6.353482,-0.0831 -6.557076,-0.33073 z"
         id="path40" />
      <path
         style="fill:#474747;stroke-width:0.264583"
         d="m 92.994131,271.51091 c -4.699297,-1.03625 -8.875255,-3.66893 -11.659458,-7.35055 -1.658569,-2.19318 -3.465676,-5.97594 -3.948184,-8.26461 -0.493561,-2.34112 -0.502316,-6.61602 -0.01823,-8.89993 1.664766,-7.85422 7.862718,-14.05617 15.708974,-15.71909 2.648884,-0.5614 6.947977,-0.49276 9.465717,0.15112 7.92932,2.02784 13.82769,8.33297 15.20745,16.25617 0.42849,2.46056 0.1724,7.46861 -0.48839,9.55086 -2.25622,7.10971 -7.71211,12.34903 -14.71906,14.13479 -2.46439,0.62807 -7.034578,0.69567 -9.548823,0.14124 z m -3.953193,-65.02609 c -0.266155,-0.87913 -4.387596,-56.38862 -4.200189,-56.57007 0.118735,-0.11496 6.159757,-1.41983 13.424495,-2.89972 13.312766,-2.71193 16.636476,-3.5947 20.111456,-5.3416 8.60642,-4.32652 14.32294,-12.97963 16.93121,-25.62879 2.48159,-12.03484 2.53651,-29.26966 0.13052,-40.962925 -1.39244,-6.767396 -4.30798,-12.864525 -7.99499,-16.719576 -5.90365,-6.172718 -13.52731,-8.950782 -26.83423,-9.778409 -12.643351,-0.786355 -24.991661,1.5631 -35.049487,6.668703 l -3.092741,1.569953 -0.305716,1.376273 c -0.168142,0.756949 -1.516848,7.031741 -2.997123,13.94398 l -2.691408,12.567708 -5.485656,0.07151 -5.485657,0.07151 V 63.176198 41.499025 l 6.019271,-1.467275 c 13.6677,-3.331678 22.498915,-4.782352 33.403646,-5.487106 6.072201,-0.392436 21.367481,-0.160885 26.326041,0.398544 18.7922,2.120152 32.35775,7.491702 41.75342,16.533094 5.74069,5.524227 9.49406,11.508477 12.08779,19.272357 2.14085,6.408253 2.8974,11.222122 3.09819,19.713458 0.22226,9.399087 -0.57046,16.800433 -2.66738,24.904443 -4.41232,17.05244 -15.2224,30.1363 -31.51785,38.14728 -5.39479,2.65213 -11.67486,4.68883 -21.16667,6.8646 -4.2201,0.96737 -7.77678,1.86049 -7.90371,1.98472 -0.12695,0.12424 -0.73888,10.14709 -1.35986,22.273 -0.62097,12.12591 -1.14219,22.07688 -1.15826,22.11326 -0.0161,0.0364 -3.009509,0.0661 -6.652097,0.0661 -5.06852,0 -6.646389,-0.0776 -6.723015,-0.33073 z"
         id="path38" />
      <path
         style="fill:#373737;stroke-width:0.264583"
         d="m 93.857569,271.6465 c -10.154957,-1.8454 -17.452596,-11.19712 -16.790916,-21.51708 0.19485,-3.039 0.708827,-5.01902 2.005888,-7.72741 1.981219,-4.13698 4.77116,-7.03691 8.762215,-9.10765 3.492317,-1.81197 5.415719,-2.2634 9.657291,-2.26662 3.149083,-0.002 4.001533,0.0901 5.688543,0.61711 5.9406,1.85587 10.18603,5.44309 12.73096,10.75716 1.29706,2.70839 1.81104,4.68841 2.00589,7.72741 0.60973,9.50966 -5.34371,18.06268 -14.60456,20.98165 -2.06543,0.65102 -7.214695,0.94261 -9.455311,0.53543 z m -4.714211,-64.8971 c -0.20584,-0.9512 -4.396472,-56.73635 -4.270258,-56.84509 0.100941,-0.087 5.958062,-1.31926 13.015822,-2.73842 13.498428,-2.71425 16.629618,-3.55626 20.543378,-5.52434 10.51634,-5.28825 16.32504,-16.11791 18.22358,-33.97579 0.92065,-8.659747 0.75488,-20.496749 -0.3969,-28.340391 -1.61169,-10.975696 -5.344,-18.632311 -11.42745,-23.442722 -4.71789,-3.730617 -10.77116,-5.925468 -19.47084,-7.059916 -3.74138,-0.487881 -15.550023,-0.42195 -19.254738,0.107505 -7.88267,1.126546 -16.363135,3.805568 -21.967266,6.939576 -1.436939,0.803582 -1.726486,1.090422 -1.945913,1.927712 -0.14178,0.541012 -1.459415,6.639126 -2.928078,13.551365 -1.468659,6.912239 -2.733455,12.776067 -2.810655,13.030728 -0.127709,0.421291 -0.627729,0.463021 -5.548036,0.463021 h -5.407675 l 0.06769,-21.629686 0.06769,-21.629687 5.483432,-1.380461 c 17.93854,-4.516053 31.278597,-6.136596 47.83011,-5.810376 8.246569,0.162535 12.934559,0.558321 19.479239,1.644542 24.50136,4.066497 40.03323,15.515731 46.487,34.26764 2.01257,5.847686 3.05374,12.154572 3.27356,19.829695 0.3779,13.194175 -1.97453,26.186145 -6.4838,35.808675 -6.41444,13.68807 -18.37065,24.35808 -33.78412,30.14978 -4.19054,1.57462 -7.58615,2.51653 -15.86182,4.39989 -4.24914,0.96702 -6.97549,1.71231 -7.15329,1.95547 -0.17858,0.24422 -0.66193,8.08779 -1.27724,20.72652 -0.54447,11.18349 -1.06006,21.07776 -1.14577,21.98726 l -0.15582,1.65365 h -6.583763 c -3.621067,0 -6.590202,-0.0298 -6.598074,-0.0661 z"
         id="path36" />
      <path
         style="fill:#272727;stroke-width:0.264583"
         d="m 93.568049,271.48118 c -6.382499,-1.15328 -11.662942,-5.32072 -14.581256,-11.50787 -5.704107,-12.09332 1.690282,-26.39007 14.834684,-28.68226 2.876759,-0.50167 4.464381,-0.50167 7.341143,0 13.1444,2.29219 20.53879,16.58894 14.83468,28.68226 -4.12278,8.74075 -12.87929,13.23348 -22.429251,11.50787 z m -4.423608,-65.12865 c -0.0073,-0.25466 -0.999221,-12.96458 -2.204316,-28.24427 -1.571127,-19.92066 -2.110139,-27.86277 -1.905,-28.06936 0.157351,-0.15846 6.06062,-1.44836 13.118381,-2.86645 7.506584,-1.50827 13.949204,-2.94754 15.523494,-3.46791 4.98413,-1.64748 8.68392,-3.86516 11.86088,-7.10948 8.41156,-8.5899 12.16012,-22.84318 11.69712,-44.476381 -0.1512,-7.064813 -0.57882,-11.666013 -1.52114,-16.367481 -2.32129,-11.581545 -7.68135,-19.262237 -16.2614,-23.301739 -5.45701,-2.569173 -11.77619,-3.780533 -21.057932,-4.036716 -11.137577,-0.307404 -19.547422,1.118571 -29.060034,4.927422 -2.200413,0.881047 -6.185371,2.914542 -6.683182,3.410379 -0.306795,0.30558 -1.318186,4.549674 -3.258183,13.672303 -1.547304,7.276042 -2.878661,13.499478 -2.95857,13.82986 l -0.145288,0.600697 -5.327778,-0.07153 -5.327779,-0.07153 V 63.158082 41.605821 l 5.563972,-1.375783 c 9.757308,-2.412652 19.514689,-4.223902 26.848886,-4.983923 15.895987,-1.647254 33.188398,-0.942557 45.730378,1.863595 25.07053,5.609298 39.66654,20.002075 43.44304,42.838137 2.0664,12.495299 0.74857,28.558373 -3.31028,40.348953 -1.20572,3.50251 -4.12767,9.46446 -6.15942,12.56771 -6.49142,9.9148 -16.72906,18.02806 -28.64053,22.69744 -4.5494,1.7834 -7.7999,2.71496 -16.37176,4.69196 -4.5051,1.03905 -7.86814,1.94317 -7.99959,2.15061 -0.12474,0.19685 -0.22863,0.66106 -0.23085,1.03158 -0.0137,2.27295 -2.15823,42.96151 -2.27426,43.14924 -0.0782,0.12662 -3.05228,0.23021 -6.608952,0.23021 -5.97731,0 -6.467676,-0.035 -6.479907,-0.46302 z"
         id="path34" />
      <path
         style="fill:#1b1b1b;stroke-width:0.264583"
         d="m 94.928285,271.63781 c -9.30855,-1.14184 -16.602519,-8.57128 -17.678688,-18.00703 -1.140347,-9.99843 5.28819,-19.41184 15.007214,-21.97532 1.522137,-0.40147 2.889496,-0.54461 5.235236,-0.548 3.817543,-0.006 6.282683,0.5645 9.356053,2.16344 4.11714,2.14197 6.90909,5.00764 8.8962,9.13111 1.5533,3.22324 2.05779,5.4253 2.06094,8.99583 0.0109,12.31381 -10.64402,21.74053 -22.876955,20.23997 z m -5.598406,-65.02226 c -0.199411,-0.32266 -4.510834,-56.40373 -4.348692,-56.56588 0.08113,-0.0811 5.96536,-1.33289 13.076063,-2.7817 14.12585,-2.87814 14.79123,-3.03989 18.08792,-4.39719 10.23079,-4.21217 16.59463,-13.09206 19.43466,-27.1185 1.3382,-6.60915 1.57151,-9.6184 1.58614,-20.458601 0.0144,-10.678027 -0.15071,-13.043333 -1.34475,-19.261687 -2.81593,-14.664943 -10.31109,-22.98526 -23.54345,-26.135376 -4.17662,-0.994296 -7.55517,-1.343025 -14.388848,-1.485199 -10.150506,-0.211182 -16.085269,0.607394 -24.41575,3.367649 -3.582847,1.187153 -9.741823,3.910049 -10.826869,4.786582 -0.328686,0.26552 -1.240784,4.070138 -3.385113,14.120229 -1.614361,7.566226 -3.027842,13.849419 -3.14107,13.962647 -0.113229,0.113228 -2.51899,0.173458 -5.346138,0.133847 l -5.140268,-0.07202 -0.0677,-21.331414 c -0.05353,-16.866547 0.0019,-21.386924 0.264583,-21.596616 0.84267,-0.67255 18.151567,-4.481613 25.467703,-5.604523 15.145213,-2.32455 33.46467,-2.321312 47.36041,0.0084 11.61252,1.946889 21.34218,5.667332 29.10914,11.130795 3.64301,2.562582 8.87172,7.925085 11.30719,11.596515 6.21964,9.376007 8.98822,19.721239 8.99256,33.602082 0.008,26.06393 -8.67958,44.44542 -26.74885,56.59517 -7.86155,5.2861 -14.78878,7.95835 -28.87774,11.13989 -4.00183,0.90369 -7.42213,1.78051 -7.60068,1.94851 -0.23335,0.21955 -0.62837,6.44254 -1.40476,22.1302 -0.59406,12.00363 -1.12885,21.9736 -1.18841,22.1555 -0.0826,0.25237 -1.61098,0.33073 -6.450983,0.33073 -3.488478,0 -6.39831,-0.09 -6.466295,-0.2 z"
         id="path32" />
      <path
         style="fill:#131313;stroke-width:0.264583"
         d="m 92.994131,271.26452 c -5.924362,-1.34581 -10.883927,-5.2889 -13.58433,-10.80018 -1.791626,-3.65654 -2.265696,-5.93868 -2.096786,-10.09379 0.103388,-2.54329 0.278,-3.6436 0.844671,-5.32271 2.146308,-6.35972 6.539289,-10.76073 12.984361,-13.00809 1.975245,-0.68875 2.399512,-0.73807 6.35,-0.73807 3.950493,0 4.374753,0.0493 6.350003,0.73807 6.44507,2.24736 10.83805,6.64837 12.98436,13.00809 0.56667,1.67911 0.74128,2.77942 0.84467,5.32271 0.16962,4.17251 -0.3031,6.43166 -2.12498,10.15541 -1.18654,2.42518 -1.66341,3.08066 -3.75351,5.15944 -2.72785,2.71308 -4.44706,3.81683 -7.74914,4.97505 -2.0749,0.72778 -2.69277,0.82103 -5.889944,0.88889 -2.327193,0.0494 -4.125066,-0.0499 -5.159375,-0.28482 z m -5.91184,-92.91879 c -1.20556,-15.51287 -2.15452,-28.24126 -2.108795,-28.28529 0.04573,-0.044 6.01458,-1.28959 13.264126,-2.76791 7.249548,-1.47831 14.095638,-2.98249 15.213538,-3.34262 3.31124,-1.06671 7.64484,-3.33728 10.01799,-5.24886 5.93177,-4.7781 10.16345,-12.79851 12.22307,-23.16675 2.37758,-11.96877 2.31943,-30.668238 -0.12817,-41.222099 -1.98237,-8.547806 -5.84293,-15.136029 -11.16758,-19.057984 -5.8456,-4.305668 -12.53454,-6.251493 -23.81941,-6.929117 -10.281841,-0.617395 -20.380547,0.801166 -29.315791,4.117974 -3.61614,1.342332 -8.537752,3.798441 -8.942425,4.46268 -0.185131,0.303882 -1.626774,6.654463 -3.203654,14.112406 L 56.248139,84.578055 H 51.007072 45.766006 V 63.157003 41.735954 l 0.992187,-0.264525 c 11.392625,-3.037366 24.307723,-5.462369 34.197396,-6.421073 5.577425,-0.540675 24.942641,-0.457616 30.095211,0.129081 8.23552,0.937737 14.3541,2.215814 20.6939,4.322642 21.38417,7.106338 33.29128,21.726874 35.84841,44.017643 0.47476,4.138572 0.54181,12.949633 0.13287,17.462498 -0.61528,6.79006 -2.34464,15.04797 -4.21104,20.10833 -5.17254,14.02424 -15.59429,25.37722 -29.51039,32.14727 -6.12577,2.98012 -11.08884,4.58876 -21.16667,6.86057 -8.99191,2.02702 -8.2368,1.71015 -8.42053,3.53353 -0.0838,0.83147 -0.60289,10.8284 -1.15358,22.2154 l -1.00126,20.70365 h -6.494144 -6.494145 z"
         id="path30" />
      <path
         style="fill:#0b0b0b;stroke-width:0.264583"
         d="m 93.857569,271.38192 c -6.188162,-1.12454 -11.66432,-5.27329 -14.475105,-10.96639 -1.59915,-3.23899 -1.988675,-5.00529 -1.988675,-9.01769 0,-4.13492 0.389078,-5.82649 2.160421,-9.39271 1.667963,-3.35809 4.958839,-6.74519 8.148254,-8.38651 3.662524,-1.88478 5.522902,-2.32699 9.789583,-2.32699 4.266683,0 6.127063,0.44221 9.789583,2.32699 3.18942,1.64132 6.48029,5.02842 8.14825,8.38651 1.77403,3.57162 2.16119,5.25781 2.15664,9.39271 -0.004,3.99951 -0.39261,5.75707 -1.99184,9.01769 -2.44754,4.99021 -6.83268,8.71463 -12.2818,10.43127 -2.0655,0.65069 -7.215462,0.94215 -9.455311,0.53512 z m -4.453755,-64.8971 c -0.181724,-0.65181 -4.381524,-56.20907 -4.258212,-56.32993 0.09659,-0.0947 6.069206,-1.37172 13.272487,-2.83789 13.498141,-2.74743 16.271361,-3.49014 20.086421,-5.37941 9.77916,-4.84276 15.74575,-15.04691 17.99129,-30.76891 1.55682,-10.90003 1.33233,-25.799907 -0.53019,-35.189583 C 132.8494,60.269063 124.76696,52.048292 109.70543,49.269469 96.685796,46.86737 82.148521,48.126159 70.554305,52.65958 c -3.584027,1.401379 -7.608903,3.389643 -8.128087,4.015224 -0.207169,0.249621 -1.696038,6.600206 -3.308596,14.112409 l -2.931928,13.65855 -5.209844,0.07174 -5.209844,0.07174 V 63.179112 41.768984 l 5.490104,-1.34399 c 16.673465,-4.081697 26.504085,-5.470218 40.811979,-5.76447 42.491601,-0.873868 66.873971,12.466529 73.982951,40.478508 1.64414,6.478521 2.34392,16.443313 1.71265,24.38798 -1.07755,13.561168 -4.323,24.230858 -10.01972,32.940628 -2.50174,3.82493 -4.51464,6.24647 -8.03461,9.66567 -4.69726,4.5628 -9.32759,7.84013 -15.33121,10.85135 -6.11396,3.06657 -11.18608,4.70834 -22.45724,7.26912 -3.85131,0.875 -7.10516,1.69369 -7.23077,1.81931 -0.35429,0.35429 -0.39812,1.04412 -1.38011,21.72371 -0.50789,10.69578 -0.9924,20.19101 -1.07667,21.10052 l -0.15322,1.65365 h -6.328943 c -3.480919,0 -6.337239,-0.0298 -6.347383,-0.0661 z"
         id="path28" />
      <path
         style="fill:#000000;stroke-width:0.264583"
         d="m 94.713922,271.39637 c -7.338703,-1.04411 -13.851802,-6.4207 -16.275298,-13.43532 -2.711932,-7.84947 -0.158041,-16.95449 6.221132,-22.17931 1.956345,-1.60233 5.088675,-3.19817 7.597055,-3.8705 2.999026,-0.80385 7.664675,-0.80322 10.511929,0.001 2.58423,0.7303 5.62363,2.28672 7.5556,3.86909 5.19138,4.25196 8.0581,11.48211 7.15596,18.048 -0.65797,4.78884 -2.52584,8.47904 -6.07148,11.99497 -2.5705,2.54896 -5.17339,4.08236 -8.48959,5.00132 -2.21955,0.61507 -6.029546,0.8799 -8.205308,0.57034 z m -5.291666,-65.06536 c 0,-0.12098 -0.956408,-12.47372 -2.125348,-27.45052 -1.168942,-14.97681 -2.091677,-27.58034 -2.050521,-28.00784 l 0.07483,-0.77727 12.567708,-2.5642 c 14.319635,-2.92164 15.179025,-3.12825 18.256245,-4.38901 8.85425,-3.62765 14.38917,-10.00613 17.87253,-20.59641 2.33793,-7.1079 3.2531,-13.66801 3.4696,-24.870831 0.35292,-18.2619 -1.99793,-29.536915 -7.78202,-37.323816 -4.91514,-6.617047 -12.07654,-10.196571 -23.61427,-11.803245 -3.90288,-0.543491 -16.751801,-0.461986 -20.769793,0.131749 -4.061468,0.600163 -8.8172,1.763001 -12.763942,3.120957 -3.342891,1.150186 -9.095068,3.800025 -10.03808,4.62421 -0.487585,0.426143 -0.972367,2.370317 -3.127587,12.542855 -1.40281,6.621198 -2.730272,12.842213 -2.949913,13.824478 l -0.399352,1.785938 h -5.139731 -5.139733 l 0.06771,-21.338113 0.06771,-21.338113 2.248959,-0.618993 c 4.22594,-1.163129 15.206707,-3.525297 20.6375,-4.439513 17.678622,-2.976006 37.462592,-2.935537 52.652082,0.107702 20.1911,4.04532 33.80817,13.394774 40.85508,28.051026 3.90681,8.125428 5.5318,16.250221 5.52925,27.645795 -0.005,21.149724 -5.68901,36.974054 -17.53766,48.822704 -7.44009,7.44008 -17.21683,13.0093 -28.57331,16.27646 -1.28241,0.36894 -5.63574,1.4329 -9.67406,2.36435 -4.03832,0.93145 -7.43499,1.78992 -7.54816,1.90772 -0.15515,0.1615 -2.3855,41.65287 -2.3689,44.06886 0.003,0.4282 -0.47438,0.46303 -6.346822,0.46303 -3.4925,0 -6.35,-0.099 -6.35,-0.21996 z"
         id="path26" />
    </g>
  </g>
</svg>
